  <svg
              width="23"
              height="23"
              viewBox="0 0 23 23"
              fill="none"
              xmlns="http://www.w3.org/2000/svg"
            >
              <path
                d="M0 13.6706C0 14.624 0.280903 15.4752 0.851221 16.2243C1.42154 16.9733 2.15359 17.4756 3.04737 17.7224L2.48557 19.1695C2.44301 19.2887 2.48557 19.3568 2.60474 19.3568H4.41784L3.20059 22.9404H3.44745L7.15877 18.1225C7.19282 18.0884 7.19282 18.0459 7.1758 18.0033C7.15877 17.9608 7.11621 17.9437 7.05662 17.9437H5.19245L7.31199 13.9856C7.37158 13.8664 7.33753 13.7983 7.19282 13.7983H4.6732C4.59659 13.7983 4.5285 13.8409 4.47742 13.926L3.56662 16.3775C2.95374 16.2243 2.44301 15.9008 2.05144 15.3901C1.65137 14.8879 1.45559 14.3175 1.45559 13.6706C1.45559 12.9556 1.69393 12.3342 2.17061 11.8149C2.6473 11.2957 3.25167 10.9893 3.96669 10.9041L4.40081 10.8786C4.50296 10.8786 4.56255 10.836 4.58808 10.7594L4.64767 10.2572C4.7413 9.33789 5.12435 8.56328 5.81384 7.94189C6.50333 7.3205 7.31199 7.00555 8.24834 7.00555C9.17617 7.00555 9.98483 7.3205 10.6828 7.94189C11.3808 8.56328 11.7809 9.33789 11.8745 10.2572L11.9426 10.7594C11.9426 10.8531 11.9937 10.9041 12.0959 10.9041H13.4663C14.2239 10.9041 14.8793 11.1765 15.4326 11.7213C15.9859 12.2661 16.2583 12.913 16.2583 13.6706C16.2583 14.4112 16.003 15.0496 15.4922 15.5944C14.9815 16.1392 14.3686 16.4286 13.6366 16.4711C13.5259 16.4711 13.4663 16.5222 13.4663 16.6243V17.765C13.4663 17.8586 13.5259 17.9097 13.6366 17.9097C14.3856 17.8927 15.0751 17.6884 15.6965 17.2968C16.3179 16.9138 16.8116 16.3945 17.1776 15.7561C17.5437 15.1177 17.7224 14.4197 17.7224 13.6706C17.7224 13.0492 17.6033 12.4789 17.3564 11.9511C18.0033 11.134 18.3268 10.1976 18.3268 9.15063C18.3268 8.34197 18.1225 7.59289 17.7224 6.9034C17.3224 6.21391 16.7776 5.66913 16.0881 5.26906C15.3986 4.86898 14.6495 4.66469 13.8409 4.66469C13.228 4.66469 12.6321 4.79237 12.0533 5.04774C11.4745 5.30311 10.9808 5.66062 10.5551 6.11177C9.86566 5.74574 9.09956 5.55847 8.23982 5.55847C7.03109 5.55847 5.95855 5.93301 5.03072 6.68208C4.10289 7.43116 3.49852 8.38453 3.24315 9.5507C2.2983 9.77202 1.52369 10.2657 0.910807 11.0318C0.30644 11.8149 0 12.6917 0 13.6706ZM7.15877 3.2091C7.15877 3.40488 7.22687 3.57513 7.37158 3.71984L7.92487 4.28164C8.06107 4.41784 8.21429 4.48593 8.39304 4.50296C8.5718 4.5285 8.74204 4.46891 8.91229 4.30718C9.08253 4.15396 9.16765 3.9752 9.16765 3.7624C9.16765 3.56662 9.09956 3.39637 8.95485 3.25166L8.41858 2.68986C8.28238 2.55366 8.11214 2.48557 7.90785 2.48557C7.69504 2.48557 7.51628 2.55366 7.37158 2.68986C7.23538 2.84308 7.15877 3.01332 7.15877 3.2091ZM8.16321 18.846C8.16321 19.0503 8.23131 19.2206 8.36751 19.3483C8.5037 19.4844 8.67395 19.5525 8.86121 19.5525C9.06551 19.5525 9.23575 19.4844 9.38046 19.3483C9.52517 19.2121 9.59326 19.0418 9.59326 18.846C9.59326 18.6417 9.52517 18.4715 9.38046 18.3268C9.23575 18.1821 9.06551 18.1055 8.86121 18.1055C8.67395 18.1055 8.51221 18.1821 8.36751 18.3268C8.2228 18.4715 8.16321 18.6417 8.16321 18.846ZM8.16321 15.7476C8.16321 15.9519 8.23131 16.1136 8.36751 16.2413C8.5037 16.3775 8.67395 16.4456 8.86121 16.4456C9.06551 16.4456 9.24426 16.3775 9.38046 16.2498C9.51665 16.1221 9.59326 15.9519 9.59326 15.7476C9.59326 15.5518 9.52517 15.3816 9.38046 15.2369C9.23575 15.0921 9.06551 15.0241 8.86121 15.0241C8.66543 15.0241 8.5037 15.0921 8.36751 15.2369C8.23131 15.3816 8.16321 15.5518 8.16321 15.7476ZM8.16321 21.97C8.16321 22.1573 8.23131 22.319 8.36751 22.4552C8.51221 22.5999 8.67395 22.668 8.86121 22.668C9.06551 22.668 9.23575 22.5999 9.38046 22.4637C9.52517 22.3275 9.59326 22.1658 9.59326 21.9615C9.59326 21.7572 9.52517 21.587 9.38046 21.4423C9.23575 21.2976 9.06551 21.2209 8.86121 21.2209C8.67395 21.2209 8.51221 21.2976 8.36751 21.4423C8.23131 21.5955 8.16321 21.7742 8.16321 21.97ZM10.9127 17.1947C10.9127 17.399 10.9808 17.5692 11.1255 17.7054C11.2702 17.8416 11.4319 17.9182 11.6362 17.9182C11.832 17.9182 12.0022 17.8501 12.1384 17.7054C12.2746 17.5607 12.3427 17.3904 12.3427 17.1947C12.3427 17.0074 12.2746 16.8372 12.1384 16.701C12.0022 16.5648 11.8405 16.4967 11.6362 16.4967C11.4404 16.4967 11.2702 16.5648 11.1255 16.701C10.9808 16.8372 10.9127 16.9989 10.9127 17.1947ZM10.9127 20.2931C10.9127 20.4889 10.9808 20.6506 11.117 20.7868C11.2531 20.923 11.4234 20.9911 11.6277 20.9911C11.832 20.9911 11.9937 20.923 12.1299 20.7868C12.2661 20.6506 12.3257 20.4889 12.3257 20.2846C12.3257 20.0803 12.2576 19.9186 12.1299 19.7824C11.9937 19.6462 11.832 19.5866 11.6277 19.5866C11.4234 19.5866 11.2531 19.6547 11.117 19.7824C10.9808 19.9186 10.9127 20.0888 10.9127 20.2931ZM11.7639 6.98001C12.3342 6.43523 13.0237 6.15433 13.8494 6.15433C14.6836 6.15433 15.3986 6.44374 15.9859 7.03109C16.5733 7.60992 16.8712 8.32494 16.8712 9.15914C16.8712 9.72094 16.735 10.2317 16.4711 10.6998C15.654 9.88268 14.658 9.47409 13.4748 9.47409H13.211C12.9641 8.46114 12.4789 7.62694 11.7639 6.98001ZM13.1258 2.49408C13.1258 2.69837 13.1939 2.86862 13.3386 3.01332C13.4833 3.15803 13.6536 3.22613 13.8494 3.22613C14.0537 3.22613 14.2239 3.15803 14.3601 3.01332C14.4963 2.86862 14.5644 2.69837 14.5644 2.49408V0.740562C14.5644 0.536269 14.4963 0.357513 14.3601 0.221318C14.2239 0.0766099 14.0537 0 13.8494 0C13.6451 0 13.4748 0.0680977 13.3386 0.212805C13.2024 0.357513 13.1258 0.527757 13.1258 0.73205V2.49408ZM17.8756 4.44337C17.8756 4.64767 17.9437 4.81791 18.0714 4.95411C18.1906 5.0903 18.3438 5.1584 18.5396 5.17542C18.7354 5.19245 18.9141 5.11584 19.0759 4.95411L20.3016 3.72835C20.4548 3.59215 20.5229 3.42191 20.5229 3.21762C20.5229 3.01332 20.4463 2.84308 20.3016 2.70688C20.1654 2.55366 19.9952 2.48557 19.7909 2.48557C19.5951 2.48557 19.4334 2.56218 19.2972 2.70688L18.0714 3.93264C17.9352 4.06032 17.8756 4.23057 17.8756 4.44337ZM18.5311 14.5814C18.5311 14.7772 18.5992 14.9474 18.7439 15.0921L19.2972 15.6284C19.4504 15.7731 19.6292 15.8412 19.8249 15.8412L19.842 15.8582C20.0292 15.8582 20.1825 15.7816 20.3016 15.6284C20.4548 15.4922 20.5229 15.322 20.5229 15.1177C20.5229 14.9219 20.4463 14.7517 20.3016 14.5984L19.7739 14.0707C19.6207 13.9175 19.4504 13.8409 19.2546 13.8409C19.0503 13.8409 18.8801 13.9175 18.7439 14.0622C18.6077 14.2069 18.5311 14.3856 18.5311 14.5814ZM19.7824 9.15914C19.7824 9.36343 19.859 9.53368 20.0037 9.66136C20.1399 9.81458 20.3101 9.88268 20.5144 9.88268H22.2679C22.4722 9.88268 22.6425 9.81458 22.7872 9.66987C22.9319 9.52516 23 9.35492 23 9.15914C23 8.96336 22.9319 8.7846 22.7872 8.64841C22.6425 8.51221 22.4722 8.44411 22.2679 8.44411H20.5144C20.3101 8.44411 20.1314 8.51221 19.9952 8.64841C19.8505 8.7846 19.7824 8.95485 19.7824 9.15914Z"
                fill="black"
              />
            </svg>