  <svg
              width="23"
              height="24"
              viewBox="0 0 23 24"
              fill="none"
              xmlns="http://www.w3.org/2000/svg"
            >
              <path
                d="M0 11.5C0 11.2401 0.086629 11.0127 0.270716 10.8286C0.454802 10.6554 0.682203 10.5687 0.920433 10.5687H3.12947C3.37853 10.5687 3.58428 10.6554 3.75753 10.8395C3.91996 11.0235 4.00659 11.2401 4.00659 11.5C4.00659 11.7599 3.93079 11.9765 3.76836 12.1605C3.60593 12.3446 3.38936 12.4313 3.1403 12.4313H0.931262C0.682204 12.4313 0.465631 12.3446 0.281544 12.1605C0.0974579 11.9765 0 11.7599 0 11.5ZM3.09699 19.0042C3.09699 18.7552 3.18362 18.5386 3.34605 18.3437L4.93785 16.7952C5.10028 16.6219 5.31686 16.5461 5.57674 16.5461C5.83663 16.5461 6.0532 16.6328 6.22646 16.7952C6.39972 16.9576 6.48635 17.1634 6.48635 17.4124C6.48635 17.6723 6.39972 17.9105 6.22646 18.1055L4.68879 19.6431C4.24482 19.9896 3.80085 19.9896 3.35687 19.6431C3.18362 19.4699 3.09699 19.2533 3.09699 19.0042ZM3.09699 4.01742C3.09699 3.76836 3.18362 3.55179 3.34605 3.35687C3.56262 3.17279 3.79002 3.08616 4.03908 3.08616C4.27731 3.08616 4.49388 3.17279 4.67797 3.34605L6.22646 4.93785C6.39972 5.10028 6.48635 5.31685 6.48635 5.57674C6.48635 5.83663 6.39972 6.0532 6.22646 6.22646C6.0532 6.39972 5.83663 6.48635 5.57674 6.48635C5.31686 6.48635 5.10028 6.39972 4.93785 6.22646L3.35687 4.67797C3.18362 4.50471 3.09699 4.27731 3.09699 4.01742ZM5.85829 11.5C5.85829 10.4929 6.10734 9.55085 6.61629 8.68456C7.12523 7.81827 7.80744 7.12523 8.68456 6.61629C9.56168 6.10734 10.4929 5.85829 11.5 5.85829C12.258 5.85829 12.9835 6.00989 13.6874 6.31309C14.3804 6.61629 14.9868 7.01695 15.4849 7.52589C15.9939 8.03484 16.3945 8.63041 16.6869 9.32345C16.9793 10.0165 17.1309 10.7528 17.1309 11.5108C17.1309 12.5287 16.8818 13.4708 16.3729 14.3371C15.8639 15.2034 15.1817 15.8856 14.3154 16.3945C13.4492 16.9035 12.5071 17.1525 11.4892 17.1525C10.4713 17.1525 9.52919 16.9035 8.6629 16.3945C7.79661 15.8856 7.11441 15.2034 6.60546 14.3371C6.11817 13.46 5.85829 12.5179 5.85829 11.5ZM7.69915 11.5C7.69915 12.5612 8.06733 13.46 8.8145 14.2072C9.55085 14.9543 10.4496 15.3333 11.5108 15.3333C12.572 15.3333 13.4708 14.9543 14.218 14.2072C14.9652 13.46 15.3442 12.5612 15.3442 11.5C15.3442 10.4605 14.9652 9.5725 14.218 8.82533C13.4708 8.08898 12.572 7.72081 11.5108 7.72081C10.4605 7.72081 9.56168 8.08898 8.82533 8.82533C8.06733 9.5725 7.69915 10.4605 7.69915 11.5ZM10.5796 19.9247C10.5796 19.6648 10.6662 19.4482 10.8503 19.275C11.0344 19.1017 11.2509 19.0151 11.5 19.0151C11.7599 19.0151 11.9873 19.1017 12.1605 19.275C12.3338 19.4482 12.4204 19.6648 12.4204 19.9247V22.0796C12.4204 22.3395 12.3338 22.5669 12.1497 22.7509C11.9656 22.935 11.7491 23.0217 11.5 23.0217C11.2509 23.0217 11.0235 22.935 10.8503 22.7509C10.6662 22.5669 10.5796 22.3395 10.5796 22.0796V19.9247ZM10.5796 3.1403V0.931262C10.5796 0.682204 10.6662 0.465631 10.8503 0.281544C11.0344 0.0974579 11.2509 0 11.5108 0C11.7707 0 11.9765 0.086629 12.1605 0.270716C12.3446 0.454802 12.4313 0.671375 12.4313 0.920433V3.1403C12.4313 3.38936 12.3446 3.5951 12.1605 3.76836C11.9765 3.94162 11.7599 4.01742 11.5108 4.01742C11.2618 4.01742 11.0344 3.93079 10.8611 3.76836C10.6879 3.60593 10.5796 3.38936 10.5796 3.1403ZM16.557 17.4124C16.557 17.1634 16.6436 16.9576 16.806 16.806C16.9685 16.6328 17.1742 16.557 17.4124 16.557C17.6723 16.557 17.8889 16.6436 18.0621 16.806L19.6431 18.3545C19.8164 18.5386 19.903 18.766 19.903 19.0151C19.903 19.2641 19.8164 19.4807 19.6431 19.654C19.21 19.9896 18.7768 19.9896 18.3437 19.654L16.806 18.1163C16.6436 17.9214 16.557 17.694 16.557 17.4124ZM16.557 5.58757C16.557 5.31685 16.6436 5.10028 16.806 4.94868L18.3437 3.35687C18.5278 3.18362 18.7443 3.09699 18.9826 3.09699C19.2425 3.09699 19.459 3.18362 19.6323 3.3677C19.8164 3.55179 19.903 3.76836 19.903 4.01742C19.903 4.28814 19.8164 4.51554 19.6431 4.68879L18.0621 6.23729C17.8672 6.41055 17.6507 6.49717 17.4124 6.49717C17.1634 6.49717 16.9685 6.41055 16.806 6.23729C16.6436 6.06403 16.557 5.84746 16.557 5.58757ZM19.0042 11.5C19.0042 11.2401 19.0909 11.0235 19.2641 10.8286C19.4374 10.6554 19.6431 10.5687 19.8814 10.5687H22.0687C22.3178 10.5687 22.5344 10.6662 22.7185 10.8503C22.9025 11.0344 23 11.2509 23 11.5C23 11.7491 22.9025 11.9656 22.7185 12.1497C22.5344 12.3338 22.3178 12.4204 22.0687 12.4204H19.8814C19.6323 12.4204 19.4157 12.3338 19.2533 12.1497C19.0909 11.9656 19.0042 11.7599 19.0042 11.5Z"
                fill="#0C0C0C"
              />
            </svg>