  <svg
              width="23"
              height="22"
              viewBox="0 0 23 22"
              fill="none"
              xmlns="http://www.w3.org/2000/svg"
            >
              <path
                d="M0 11.804C0 12.0646 0.0868653 12.277 0.270248 12.4507C0.45363 12.6244 0.685271 12.7016 0.96517 12.7016H2.59631C2.8569 12.7016 3.07889 12.6148 3.26227 12.441C3.44566 12.2673 3.54217 12.055 3.54217 11.804C3.54217 11.5241 3.45531 11.2925 3.27193 11.1188C3.08854 10.945 2.86655 10.8485 2.60596 10.8485H0.96517C0.685271 10.8485 0.45363 10.9354 0.270248 11.1188C0.0868653 11.2828 0 11.5145 0 11.804ZM1.70835 17.7688C1.70835 18.705 2.04616 19.5157 2.73143 20.201C3.4167 20.8863 4.21779 21.2241 5.15401 21.2241H11.7751C12.7113 21.2241 13.5124 20.8863 14.1783 20.2107C14.8443 19.535 15.1821 18.7243 15.1821 17.7688C15.1821 17.3055 15.1146 16.9098 14.9794 16.5816C15.7805 16.0701 16.4175 15.3848 16.8808 14.5355C17.3441 13.6861 17.5854 12.7692 17.5854 11.7944C17.5854 11.0126 17.431 10.2598 17.1221 9.54553C16.8133 8.83131 16.3982 8.2136 15.8867 7.70206C15.3752 7.19052 14.7574 6.77549 14.0432 6.46664C13.329 6.15778 12.5858 6.00336 11.804 6.00336C10.752 6.00336 9.77717 6.26395 8.88922 6.78514C8.00126 7.30634 7.29668 8.01091 6.78514 8.88922C6.2736 9.77717 6.02266 10.7423 6.02266 11.7944V12.1225C5.05749 12.6727 4.42048 13.4738 4.11162 14.5258C3.3781 14.7574 2.79899 15.1628 2.36467 15.7516C1.93034 16.3403 1.70835 17.0159 1.70835 17.7688ZM3.21402 4.10197C3.21402 4.37222 3.30088 4.59421 3.46496 4.74864L5.01888 6.37977C5.47251 6.72723 5.92614 6.72723 6.37977 6.37977C6.56316 6.19639 6.65002 5.9744 6.65002 5.70415C6.65002 5.44356 6.56316 5.22157 6.37977 5.02854L4.78724 3.43601C4.58456 3.25262 4.35292 3.15611 4.11162 3.15611C3.84138 3.15611 3.61939 3.24297 3.45531 3.42635C3.29123 3.60974 3.21402 3.83172 3.21402 4.10197ZM3.61939 17.7688C3.61939 17.3634 3.74486 17.0159 4.00545 16.7264C4.26605 16.4368 4.59421 16.2728 4.98993 16.2342L5.58833 16.1569C5.71381 16.1569 5.78137 16.0797 5.78137 15.935L5.86823 15.3945C5.9358 14.8347 6.16744 14.3714 6.57281 14.0046C6.97818 13.6282 7.45111 13.4448 8.00126 13.4448C8.56106 13.4448 9.05329 13.6282 9.45867 14.0046C9.87369 14.381 10.115 14.8443 10.1825 15.3945L10.2598 16.0218C10.3177 16.1666 10.3949 16.2438 10.4914 16.2438H11.7654C12.1804 16.2438 12.5376 16.3982 12.8464 16.6974C13.1553 16.9966 13.3 17.3538 13.3 17.7784C13.3 18.2128 13.1456 18.5795 12.8464 18.8884C12.5472 19.1972 12.1804 19.3517 11.7654 19.3517H5.15401C4.71968 19.3517 4.35292 19.1972 4.06337 18.8884C3.76416 18.5795 3.61939 18.2031 3.61939 17.7688ZM7.88544 11.6013C7.953 10.5493 8.35837 9.66135 9.1112 8.93747C9.85438 8.22325 10.7616 7.85648 11.804 7.85648C12.8754 7.85648 13.7923 8.24255 14.5451 9.00504C15.2979 9.76752 15.6744 10.7037 15.6744 11.7944C15.6744 12.47 15.5103 13.0974 15.1821 13.6765C14.854 14.2556 14.41 14.7188 13.8502 15.076C13.2807 14.603 12.6244 14.3714 11.8909 14.3714C11.611 13.522 11.1091 12.8561 10.4045 12.3542C9.69996 11.8523 8.89887 11.6013 8.01091 11.6013H7.88544ZM10.8678 3.15611C10.8678 3.4167 10.9643 3.64834 11.1477 3.83172C11.3311 4.01511 11.5531 4.11162 11.8137 4.11162C12.0839 4.11162 12.3059 4.01511 12.4893 3.83172C12.6727 3.64834 12.7692 3.42635 12.7692 3.15611V0.897608C12.7692 0.646664 12.6727 0.434326 12.4893 0.260596C12.3059 0.0868653 12.0839 0 11.8137 0C11.5531 0 11.3311 0.0868653 11.1477 0.260596C10.9643 0.434326 10.8678 0.646664 10.8678 0.897608V3.15611ZM16.9677 17.8556C16.9677 18.1162 17.0546 18.3382 17.2283 18.5313L18.8112 20.0948C19.2165 20.5002 19.6702 20.5002 20.1721 20.0948C20.3458 19.9308 20.423 19.7184 20.423 19.4385C20.423 19.1779 20.3361 18.9656 20.1721 18.7919L18.5409 17.18C18.3672 17.0159 18.1452 16.9387 17.8846 16.9387C17.6144 16.9387 17.402 17.0256 17.2283 17.1993C17.0546 17.3731 16.9677 17.595 16.9677 17.8556ZM16.9677 5.68485C16.9677 5.9551 17.0546 6.18674 17.2283 6.37977C17.402 6.5535 17.624 6.64037 17.8846 6.64037C18.1452 6.64037 18.3672 6.5535 18.5409 6.37977L20.1721 4.74864C20.3458 4.58456 20.423 4.37222 20.423 4.10197C20.423 3.83172 20.3265 3.60974 20.1431 3.43601C19.9597 3.26227 19.7377 3.16576 19.4675 3.16576C19.2165 3.16576 18.9945 3.26227 18.8112 3.44566L17.2283 5.01888C17.0546 5.19261 16.9677 5.4146 16.9677 5.68485ZM19.4578 11.804C19.4578 12.0646 19.5447 12.277 19.7281 12.4507C19.9115 12.6244 20.1431 12.7016 20.423 12.7016H22.0541C22.3147 12.7016 22.5367 12.6148 22.7201 12.441C22.9035 12.2673 23 12.055 23 11.804C23 11.5241 22.9131 11.2925 22.7298 11.1188C22.5464 10.945 22.3244 10.8485 22.0638 10.8485H20.4326C20.1527 10.8485 19.9211 10.9354 19.7377 11.1188C19.5543 11.2828 19.4578 11.5145 19.4578 11.804Z"
                fill="black"
              />
            </svg>