 <svg
              width="23"
              height="24"
              viewBox="0 0 23 24"
              fill="none"
              xmlns="http://www.w3.org/2000/svg"
            >
              <path
                d="M0 12.247C0 13.6464 0.49451 14.8458 1.47301 15.8559C2.45151 16.866 3.65096 17.4026 5.05032 17.4446C5.17658 17.4446 5.23971 17.3815 5.23971 17.2658V15.8559C5.23971 15.7402 5.17658 15.677 5.05032 15.677C4.15599 15.6349 3.38792 15.2667 2.75663 14.5933C2.12534 13.9199 1.79918 13.1308 1.79918 12.247C1.79918 11.3527 2.09378 10.5741 2.6935 9.92177C3.29323 9.26944 4.02973 8.90119 4.90302 8.82754L5.46066 8.75389C5.59744 8.75389 5.67109 8.69076 5.67109 8.5645L5.74474 8.0279C5.86048 6.87054 6.33394 5.90256 7.18618 5.13449C8.03843 4.36642 9.03797 3.97713 10.1953 3.97713C11.3422 3.97713 12.3417 4.36642 13.2045 5.13449C14.0672 5.90256 14.5618 6.86002 14.6775 7.99634L14.7511 8.59607C14.7511 8.72232 14.8143 8.79597 14.93 8.79597H16.6345C17.5919 8.79597 18.4021 9.13266 19.086 9.81656C19.7699 10.4899 20.1066 11.3001 20.1066 12.247C20.1066 12.8257 19.9593 13.3728 19.6752 13.8884C19.3911 14.4039 18.9913 14.8248 18.4863 15.151C17.9812 15.4771 17.4341 15.656 16.8449 15.6876C16.7081 15.6876 16.6345 15.7507 16.6345 15.8664V17.2763C16.6345 17.392 16.7081 17.4552 16.8449 17.4552C17.7708 17.4341 18.6231 17.1816 19.3911 16.7081C20.1592 16.2347 20.7694 15.6034 21.2113 14.8143C21.6532 14.0252 21.8742 13.1729 21.8742 12.2575C21.8742 11.3317 21.6322 10.4478 21.1587 9.61665C22.032 8.83806 22.5897 7.91217 22.8211 6.86002L22.9684 6.14456C22.9895 6.12351 23 6.10247 23 6.07091C23 6.00778 22.9369 5.95517 22.8211 5.90256L22.2425 5.71317C21.6427 5.53431 21.1167 5.23971 20.6958 4.81885C20.2644 4.39799 19.9593 3.96661 19.7804 3.50366C19.6016 3.05123 19.5069 2.59881 19.5069 2.14639C19.4858 1.92543 19.5174 1.63083 19.6016 1.28362L19.7383 0.673376C19.7804 0.568161 19.7383 0.483989 19.6016 0.431381L18.7598 0.178866C18.3285 0.0631291 17.876 0 17.4026 0C17.0238 0 16.624 0.0420861 16.2242 0.13678C15.8243 0.231473 15.4035 0.368252 14.9721 0.568161C14.5407 0.768069 14.1199 1.05215 13.7095 1.4204C13.2992 1.78865 12.952 2.22004 12.6574 2.71455C11.8051 2.38838 10.9739 2.23056 10.1848 2.23056C8.70128 2.23056 7.37557 2.6935 6.22873 3.6194C5.08188 4.54529 4.33486 5.7237 4.00869 7.16514C2.83028 7.47027 1.86231 8.09103 1.11528 9.02745C0.368252 9.94282 0 11.0265 0 12.247ZM5.69213 19.6647C5.69213 19.8435 5.74474 20.0224 5.86048 20.2013C5.97621 20.3801 6.14456 20.4959 6.35499 20.5695C6.59698 20.6432 6.81793 20.6327 7.02836 20.5274C7.23879 20.4222 7.36505 20.2328 7.4387 19.9382L7.586 19.2964C7.63861 19.0544 7.60704 18.8335 7.49131 18.6336C7.37557 18.4231 7.19671 18.2864 6.94419 18.2127C6.7022 18.1391 6.48124 18.1706 6.27081 18.2969C6.06038 18.4231 5.91308 18.6125 5.84995 18.8545L5.71317 19.4648C5.69213 19.5069 5.69213 19.57 5.69213 19.6647ZM6.49177 16.6134C6.49177 16.8344 6.57594 17.0343 6.7548 17.2132C6.92315 17.392 7.11253 17.4762 7.34401 17.4762C7.59652 17.4762 7.80695 17.392 7.9753 17.2237C8.14364 17.0554 8.22781 16.8554 8.22781 16.6029C8.22781 16.3609 8.14364 16.1505 7.9753 15.9822C7.80695 15.8138 7.59652 15.7296 7.34401 15.7296C7.10201 15.7296 6.89158 15.8138 6.73376 15.9716C6.57594 16.1295 6.49177 16.3715 6.49177 16.6134ZM7.13358 14.2251C7.12306 14.3934 7.16514 14.5512 7.28088 14.6985C7.38609 14.8564 7.55444 14.9616 7.78591 15.0352C8.00686 15.0984 8.21729 15.0773 8.43824 14.9616C8.6592 14.8458 8.79597 14.667 8.86962 14.425L9.16423 13.478C9.23788 13.2255 9.21683 12.9941 9.09058 12.7941C8.96432 12.5942 8.77493 12.4575 8.52242 12.3838C8.29094 12.3102 8.06999 12.3312 7.85956 12.4575C7.64913 12.5732 7.50183 12.7521 7.42818 12.9835L7.17566 13.9515C7.17566 13.9726 7.16514 14.0146 7.15462 14.0778C7.13358 14.1304 7.13358 14.183 7.13358 14.2251ZM8.35407 22.9474C8.35407 23.1368 8.40668 23.3051 8.51189 23.4735C8.61711 23.6418 8.78545 23.7575 9.01693 23.8207C9.1011 23.8417 9.19579 23.8522 9.27996 23.8522C9.73239 23.8522 10.0059 23.6418 10.1112 23.2104L10.2585 22.5897C10.3216 22.3161 10.29 22.0846 10.1743 21.8742C10.0586 21.6638 9.86917 21.5375 9.62717 21.4849C9.40622 21.4113 9.18527 21.4323 8.96432 21.5586C8.74337 21.6848 8.60659 21.8637 8.53294 22.0952L8.38564 22.7159C8.36459 22.8106 8.35407 22.8843 8.35407 22.9474ZM9.17475 19.8962C9.17475 20.1276 9.25892 20.3275 9.43778 20.5064C9.60613 20.6747 9.80604 20.7589 10.0375 20.7589C10.29 20.7589 10.4899 20.6747 10.6583 20.5169C10.8266 20.3486 10.9003 20.1487 10.9003 19.8962C10.9003 19.6542 10.8161 19.4543 10.6583 19.2859C10.5005 19.1176 10.29 19.0439 10.0375 19.0439C9.78499 19.0439 9.58509 19.1281 9.41674 19.2859C9.25892 19.4437 9.17475 19.6542 9.17475 19.8962ZM9.8376 17.5078C9.82708 17.6656 9.86917 17.8339 9.97438 18.0023C10.0796 18.1706 10.2374 18.2758 10.4478 18.3179C10.6898 18.3811 10.9108 18.36 11.1212 18.2548C11.3211 18.1496 11.4684 17.9497 11.5526 17.6656L11.8367 16.7187C11.9103 16.4872 11.8893 16.2662 11.763 16.0558C11.6368 15.8454 11.4579 15.7086 11.2054 15.6349C10.9739 15.5613 10.753 15.5929 10.532 15.7191C10.3111 15.8454 10.1743 16.0348 10.1006 16.2768L9.86917 17.2237C9.84812 17.3079 9.8376 17.4026 9.8376 17.5078ZM12.731 19.7699C12.731 19.9382 12.7836 20.1066 12.8888 20.2749C12.9941 20.4433 13.1624 20.559 13.3728 20.6221C13.4044 20.6221 13.457 20.6327 13.5201 20.6432C13.5833 20.6537 13.6253 20.6642 13.6674 20.6642C14.0988 20.6642 14.3618 20.4328 14.4671 19.9698L14.6144 19.3385C14.688 19.1176 14.667 18.8966 14.5407 18.6757C14.425 18.4547 14.2461 18.3179 14.0041 18.2443C13.7411 18.1812 13.4991 18.2022 13.2887 18.3285C13.0782 18.4547 12.9309 18.6336 12.8573 18.8861L12.7626 19.5069C12.7626 19.5279 12.7521 19.5805 12.7415 19.6331C12.7415 19.6857 12.731 19.7278 12.731 19.7699ZM13.5096 16.6555C13.5096 16.887 13.5938 17.0974 13.7726 17.2553C13.9305 17.4236 14.1304 17.5078 14.3724 17.5078C14.6249 17.5078 14.8248 17.4236 14.9931 17.2658C15.1615 17.108 15.2351 16.8975 15.2351 16.6555C15.2351 16.403 15.151 16.2031 14.9931 16.0348C14.8353 15.8664 14.6249 15.7928 14.3724 15.7928C14.1199 15.7928 13.9199 15.8769 13.7516 16.0348C13.5833 16.1926 13.5096 16.403 13.5096 16.6555ZM14.1514 14.2251C14.1514 14.4039 14.204 14.5723 14.3198 14.7301C14.4355 14.8879 14.6038 15.0037 14.8353 15.0668C14.8564 15.0668 14.8984 15.0773 14.9616 15.0878C15.0247 15.0984 15.0773 15.1089 15.1089 15.1089C15.2141 15.1089 15.3403 15.0773 15.4876 15.0142C15.7086 14.8984 15.8559 14.7091 15.919 14.4671L16.1715 13.5201C16.2347 13.2781 16.2136 13.0572 16.0874 12.8573C15.9716 12.6468 15.7928 12.5101 15.5508 12.4364C15.3088 12.3628 15.0878 12.3838 14.8774 12.4995C14.667 12.6153 14.5407 12.7836 14.4671 13.0361L14.1725 13.9936C14.1725 14.0146 14.1619 14.0567 14.1514 14.1199C14.1619 14.1514 14.1514 14.1935 14.1514 14.2251ZM14.2251 3.65096C14.5618 3.04071 15.0247 2.57777 15.6034 2.24108C16.1926 1.90439 16.7923 1.74657 17.4236 1.75709C17.5183 1.75709 17.6235 1.76761 17.7392 1.78865V2.11482C17.7287 3.14593 18.0023 4.11391 18.5494 5.01876C19.107 5.92361 19.8856 6.59698 20.8852 7.05993C20.6853 7.49131 20.4012 7.8806 20.0435 8.22781C19.0755 7.42818 17.9392 7.02836 16.645 7.02836H16.3188C15.9927 5.65005 15.2983 4.52425 14.2251 3.65096Z"
                fill="black"
              />
            </svg>