  <svg
              width="23"
              height="24"
              viewBox="0 0 23 24"
              fill="none"
              xmlns="http://www.w3.org/2000/svg"
            >
              <path
                d="M0 13.7043C0 14.8321 0.393016 15.8061 1.17051 16.6092C1.94799 17.4123 2.91345 17.8481 4.05832 17.8993C4.16085 17.8993 4.21211 17.8481 4.21211 17.7541V16.6178C4.21211 16.5152 4.16085 16.464 4.05832 16.464C3.32355 16.4298 2.7084 16.1393 2.20431 15.6096C1.70022 15.0799 1.45245 14.4391 1.45245 13.6958C1.45245 12.9781 1.69168 12.3458 2.17013 11.8247C2.64859 11.2949 3.24666 11.0045 3.96434 10.9447L4.41716 10.8763C4.51114 10.8763 4.55386 10.8336 4.55386 10.7567L4.62221 10.2868C4.72474 9.3555 5.1263 8.57801 5.80126 7.96285C6.47623 7.3477 7.27935 7.04866 8.21917 7.04866C9.15899 7.04866 9.97065 7.35624 10.6627 7.9714C11.3633 8.58655 11.7563 9.3555 11.8418 10.2697L11.9016 10.7652C11.9186 10.8592 11.987 10.9105 12.0895 10.9105H13.4565C14.2169 10.9105 14.8663 11.1839 15.4131 11.7307C15.9599 12.2775 16.2333 12.9354 16.2333 13.7043C16.2333 14.4476 15.9855 15.0799 15.4814 15.6181C14.9773 16.1564 14.3622 16.4298 13.6274 16.4725C13.5163 16.4725 13.4565 16.5238 13.4565 16.6263V17.7626C13.4565 17.8566 13.5163 17.9079 13.6274 17.9079C14.7637 17.8737 15.7207 17.4465 16.5067 16.6348C17.2842 15.8232 17.6772 14.8492 17.6772 13.7129C17.6772 13.1319 17.5661 12.568 17.3525 11.9955C18.0189 11.1753 18.3436 10.2184 18.3436 9.13336C18.3436 8.52675 18.224 7.95431 17.9933 7.39896C17.7626 6.84361 17.438 6.3737 17.0364 5.97214C16.6348 5.57058 16.1564 5.25446 15.6096 5.01523C15.0628 4.776 14.4733 4.65639 13.8666 4.65639C12.5509 4.65639 11.4487 5.15193 10.5687 6.14302C9.80832 5.76709 9.02229 5.57912 8.22771 5.57912C7.02303 5.57912 5.95505 5.95505 5.03232 6.69837C4.10958 7.44168 3.52006 8.40713 3.2552 9.58618C2.29829 9.80832 1.51226 10.2953 0.905646 11.0643C0.299034 11.8332 0 12.7132 0 13.7043ZM4.57095 19.7106C4.57095 19.8559 4.61367 20.0011 4.70765 20.1464C4.80163 20.2916 4.93834 20.3856 5.10921 20.4454C5.30572 20.5052 5.49369 20.4967 5.65602 20.4112C5.82689 20.3343 5.93796 20.172 5.99777 19.9328L6.11739 19.4116C6.1601 19.2151 6.13447 19.0357 6.03195 18.8733C5.92942 18.7025 5.78418 18.5914 5.58767 18.5316C5.39116 18.4718 5.21174 18.4974 5.04086 18.5999C4.86999 18.7025 4.76746 18.8477 4.7162 19.0442L4.59658 19.5483C4.57949 19.5996 4.57095 19.6508 4.57095 19.7106ZM5.22883 17.2329C5.22883 17.4209 5.29718 17.5832 5.43388 17.7199C5.57058 17.8737 5.73291 17.942 5.91233 17.942C6.11738 17.942 6.28826 17.8737 6.42496 17.737C6.57021 17.6003 6.63856 17.438 6.63856 17.2329C6.63856 17.0364 6.57021 16.8655 6.42496 16.7288C6.27972 16.5921 6.10884 16.5238 5.91233 16.5238C5.71582 16.5238 5.55349 16.5921 5.41679 16.7203C5.28009 16.8484 5.22883 17.0364 5.22883 17.2329ZM5.75 15.2935C5.74146 15.4302 5.77563 15.5583 5.86107 15.6779C5.94651 15.8061 6.08321 15.8915 6.27117 15.9513C6.45059 16.0026 6.62147 15.9855 6.80089 15.8915C6.98031 15.7975 7.09992 15.6523 7.15973 15.4558L7.39042 14.6868C7.45022 14.4818 7.43314 14.2938 7.33061 14.1315C7.22808 13.9692 7.07429 13.8581 6.86924 13.7983C6.68128 13.7385 6.50186 13.7556 6.33098 13.8581C6.1601 13.9521 6.04049 14.0973 5.98068 14.2853L5.77563 15.0713C5.75854 15.208 5.75 15.2849 5.75 15.2935ZM6.73254 22.3763C6.73254 22.5215 6.77526 22.6582 6.86924 22.7949C6.96323 22.9316 7.09993 23.0256 7.28789 23.0769C7.36479 23.094 7.43314 23.1025 7.49294 23.1025C7.86033 23.1025 8.09101 22.9316 8.17645 22.5814L8.28752 22.0773C8.33878 21.8551 8.31315 21.6672 8.21917 21.4963C8.12519 21.3254 7.9714 21.2229 7.77489 21.1802C7.59547 21.1204 7.41605 21.1374 7.23663 21.24C7.05721 21.3425 6.94614 21.4877 6.88633 21.6757L6.76672 22.1883C6.74108 22.2823 6.73254 22.3507 6.73254 22.3763ZM7.211 3.20394C7.211 3.40899 7.27935 3.57987 7.41605 3.71657L7.97994 4.26337C8.09955 4.40007 8.25334 4.46842 8.44131 4.48551C8.62927 4.5026 8.80869 4.42571 8.97103 4.26337C9.10773 4.12667 9.17608 3.95579 9.17608 3.75929C9.17608 3.55423 9.10773 3.38336 8.97103 3.24666L8.43276 2.69131C8.30461 2.55461 8.13373 2.48626 7.93722 2.46917C7.74071 2.46917 7.56984 2.53752 7.42459 2.68276C7.28789 2.82801 7.211 2.99889 7.211 3.20394ZM7.4075 19.8986C7.4075 20.0951 7.47585 20.2574 7.61256 20.3941C7.74926 20.5308 7.92013 20.5992 8.1081 20.5992C8.31315 20.5992 8.47548 20.5308 8.61218 20.4027C8.74889 20.266 8.80869 20.1036 8.80869 19.8986C8.80869 19.7021 8.74034 19.5397 8.61218 19.403C8.47548 19.2663 8.31315 19.2065 8.1081 19.2065C7.90305 19.2065 7.74071 19.2749 7.60401 19.403C7.46731 19.5312 7.4075 19.7021 7.4075 19.8986ZM7.93722 17.9591C7.92868 18.0873 7.96285 18.224 8.05684 18.3607C8.14227 18.4974 8.27043 18.5828 8.44131 18.617C8.63781 18.6683 8.81724 18.6512 8.98811 18.5657C9.15899 18.4803 9.27006 18.318 9.33841 18.0873L9.56055 17.3183C9.62036 17.1304 9.60327 16.951 9.50074 16.7801C9.39822 16.6092 9.25297 16.4981 9.04792 16.4383C8.85996 16.3785 8.68054 16.4042 8.50111 16.5067C8.32169 16.6092 8.21062 16.763 8.15082 16.9595L7.96285 17.7285C7.94576 17.7968 7.93722 17.8737 7.93722 17.9591ZM10.2953 19.7961C10.2953 19.9413 10.338 20.078 10.4235 20.2062C10.5089 20.3343 10.6371 20.4283 10.8165 20.4796C10.8421 20.4796 10.8848 20.4881 10.9361 20.4967C10.9874 20.5052 11.0301 20.5137 11.0557 20.5137C11.406 20.5137 11.6196 20.3258 11.7051 19.9499L11.8247 19.4372C11.8845 19.2578 11.8674 19.0784 11.7649 18.899C11.6623 18.7195 11.5171 18.6085 11.3291 18.5487C11.1155 18.4974 10.919 18.5145 10.7481 18.617C10.5773 18.7195 10.4577 18.8648 10.3978 19.0698L10.321 19.5739C10.321 19.5825 10.321 19.6166 10.3124 19.6679C10.3039 19.7277 10.2953 19.7619 10.2953 19.7961ZM10.9276 17.2671C10.9276 17.4636 10.9959 17.6259 11.1326 17.7541C11.2608 17.8908 11.4231 17.9591 11.6282 17.9591C11.8332 17.9591 11.9955 17.8908 12.1322 17.7626C12.2689 17.6259 12.3288 17.4636 12.3288 17.2671C12.3288 17.062 12.2604 16.8997 12.1322 16.763C11.9955 16.6263 11.8332 16.5665 11.6282 16.5665C11.4231 16.5665 11.2608 16.6348 11.1241 16.763C10.9874 16.8912 10.9276 17.062 10.9276 17.2671ZM11.4487 15.2935C11.4487 15.4387 11.4915 15.5754 11.5854 15.7036C11.6794 15.8317 11.8161 15.9257 12.0041 15.977C12.0212 15.977 12.0553 15.9855 12.1066 15.9941C12.1579 16.0026 12.2006 16.0111 12.2262 16.0111C12.3202 16.0111 12.4227 15.9855 12.5423 15.9342C12.7218 15.8403 12.8328 15.695 12.8841 15.49L13.0892 14.721C13.1404 14.5245 13.1233 14.3451 13.0293 14.1828C12.9354 14.0204 12.7901 13.9008 12.6022 13.841C12.4056 13.7812 12.2177 13.7983 12.0553 13.8923C11.8845 13.9863 11.7734 14.123 11.7136 14.328L11.4744 15.1055C11.4744 15.1226 11.4744 15.1482 11.4658 15.1995C11.4573 15.2251 11.4487 15.2593 11.4487 15.2935ZM11.7478 6.98886C12.3117 6.42496 13.0123 6.14302 13.8581 6.14302C14.7039 6.14302 15.4216 6.43351 16.0111 7.01449C16.6007 7.59547 16.8997 8.29606 16.8997 9.13336C16.8997 9.69725 16.7459 10.2355 16.4469 10.7396C15.6096 9.9023 14.61 9.48365 13.4565 9.48365H13.1917C12.9525 8.54383 12.4655 7.71508 11.7478 6.98886ZM13.1575 2.4948C13.1575 2.69131 13.2259 2.85364 13.354 2.99034C13.4822 3.1185 13.653 3.18685 13.8581 3.18685C14.0632 3.18685 14.2426 3.1185 14.3878 2.99034C14.5331 2.86218 14.6014 2.69131 14.6014 2.4948V0.726226C14.6014 0.529718 14.5245 0.358841 14.3793 0.213596C14.234 0.0683506 14.0546 0 13.8581 0C13.6616 0 13.4907 0.0683506 13.3626 0.213596C13.2259 0.358841 13.166 0.529718 13.166 0.726226V2.4948H13.1575ZM17.8737 4.42571C17.8737 4.6393 17.9421 4.81018 18.0702 4.93834C18.3778 5.24591 18.7195 5.24591 19.104 4.93834L20.3258 3.71657C20.471 3.57132 20.5394 3.3919 20.5394 3.17831C20.5394 2.97325 20.471 2.80238 20.3258 2.66568C20.1805 2.52043 20.0097 2.45208 19.8132 2.45208C19.6166 2.45208 19.4458 2.52043 19.292 2.65713L18.0702 3.92162C17.9421 4.04978 17.8737 4.21211 17.8737 4.42571ZM18.5401 14.5501C18.5401 14.7467 18.617 14.9175 18.7708 15.0542L19.292 15.5925C19.4629 15.7292 19.6337 15.7975 19.8132 15.7975C19.984 15.7975 20.1549 15.7292 20.3258 15.5925C20.471 15.4558 20.5394 15.2935 20.5394 15.0884C20.5394 14.8919 20.471 14.721 20.3258 14.5587L19.7704 14.0375C19.6423 13.8923 19.4799 13.8239 19.2834 13.8239C19.0869 13.8239 18.916 13.8923 18.7708 14.0375C18.617 14.1828 18.5401 14.3536 18.5401 14.5501ZM19.8046 9.13336C19.8046 9.33841 19.8815 9.50074 20.0267 9.63744C20.1805 9.79123 20.36 9.86813 20.5565 9.86813H22.2909C22.4874 9.86813 22.6582 9.79978 22.7949 9.65453C22.9316 9.50929 23 9.33841 23 9.13336C23 8.92831 22.9316 8.75743 22.7949 8.62073C22.6582 8.47548 22.4959 8.40713 22.2909 8.40713H20.5565C20.3514 8.40713 20.1805 8.47548 20.0267 8.62073C19.873 8.76597 19.8046 8.93685 19.8046 9.13336Z"
                fill="black"
              />
            </svg>