 <svg
              width="23"
              height="23"
              viewBox="0 0 23 23"
              fill="none"
              xmlns="http://www.w3.org/2000/svg"
            >
              <path
                d="M0 19.2463C0 19.4659 0.062649 19.657 0.195778 19.8098C0.328907 19.9626 0.493361 20.039 0.689139 20.039H15.3412C15.5291 20.039 15.6857 19.9626 15.8189 19.8098C15.952 19.657 16.0146 19.4755 16.0146 19.2463C16.0146 19.017 15.952 18.826 15.8189 18.6732C15.6857 18.5108 15.5291 18.4344 15.3412 18.4344H0.689139C0.493361 18.4344 0.328907 18.5108 0.195778 18.6732C0.062649 18.8355 0 19.017 0 19.2463ZM2.05175 16.2471C2.05175 16.4668 2.1144 16.6578 2.24753 16.8011C2.38066 16.973 2.53728 17.059 2.7174 17.059H17.3773C17.5574 17.059 17.714 16.9826 17.8393 16.8202C17.9646 16.6578 18.0272 16.4668 18.0272 16.2471C18.0272 16.0274 17.9646 15.8364 17.8471 15.6836C17.7218 15.5307 17.573 15.4543 17.3851 15.4543H2.72523C2.53728 15.4543 2.38066 15.5307 2.25536 15.6836C2.12223 15.8459 2.05175 16.0274 2.05175 16.2471ZM2.15356 13.9547C2.15356 14.0407 2.19271 14.0789 2.27886 14.0789H3.39871C3.45352 14.0789 3.50834 14.0311 3.56316 13.9261C3.75111 13.4294 4.0252 13.0282 4.39326 12.713C4.76132 12.3978 5.16854 12.2164 5.61491 12.1782L6.03779 12.1113C6.12394 12.1113 6.17092 12.054 6.17092 11.9394L6.22574 11.4522C6.31188 10.4207 6.66428 9.56105 7.2986 8.86379C7.93292 8.17608 8.67688 7.82268 9.5383 7.82268C10.3841 7.82268 11.128 8.16653 11.7623 8.85424C12.3967 9.54194 12.7569 10.392 12.843 11.414L12.8979 11.968C12.8979 12.0731 12.9448 12.1304 13.0466 12.1304H14.3075C14.8086 12.1304 15.2707 12.2928 15.6857 12.6271C16.1008 12.9518 16.4062 13.3912 16.6098 13.9356C16.6646 14.0407 16.7116 14.0885 16.7664 14.0885H17.8941C17.9959 14.0885 18.0351 14.0216 17.9959 13.8688L17.8393 13.3434C18.4345 12.4456 18.7242 11.3949 18.7242 10.1819C18.7242 9.50374 18.6146 8.86379 18.4031 8.24294C18.1917 7.62209 17.9019 7.09676 17.5339 6.64784C17.1736 6.19892 16.7351 5.84552 16.2261 5.57807C15.7171 5.31063 15.1924 5.19601 14.6285 5.19601C13.4225 5.19601 12.4202 5.7309 11.637 6.80066C10.9714 6.3995 10.2744 6.19892 9.5383 6.19892C8.44195 6.19892 7.46306 6.61919 6.60947 7.45972C5.75587 8.30025 5.20769 9.37002 4.96493 10.6786C3.57099 11.1275 2.63126 12.1877 2.16139 13.8783C2.15356 13.8879 2.15356 13.9165 2.15356 13.9547ZM3.4222 22.1786C3.4222 22.4078 3.49268 22.5988 3.63364 22.7517C3.75894 22.914 3.90773 23 4.09568 23H18.7712C18.9513 23 19.1079 22.9236 19.2411 22.7612C19.3742 22.5988 19.4368 22.4078 19.4368 22.1786C19.4368 21.9589 19.3742 21.7774 19.2411 21.6246C19.1079 21.4813 18.9513 21.4049 18.7712 21.4049H4.09568C3.90773 21.4049 3.75111 21.4813 3.61798 21.6246C3.48485 21.7774 3.4222 21.9589 3.4222 22.1786ZM8.56725 3.58181C8.56725 3.81105 8.62989 3.99253 8.74736 4.14535L9.25638 4.75664C9.38951 4.92857 9.5383 5.01454 9.71059 5.01454C9.88287 5.01454 10.0395 4.93812 10.1805 4.77575C10.3136 4.61337 10.3841 4.42234 10.3841 4.19311C10.3841 3.96387 10.3214 3.76329 10.1883 3.59136L9.6871 3.00872C9.5618 2.84635 9.40518 2.76038 9.21723 2.76038C9.02928 2.76038 8.87266 2.83679 8.74736 2.99917C8.62989 3.15199 8.56725 3.35257 8.56725 3.58181ZM12.7334 7.76537C13.2581 7.11586 13.8924 6.80066 14.6364 6.80066C15.4038 6.80066 16.0616 7.13497 16.602 7.79402C17.1423 8.45307 17.4164 9.2554 17.4164 10.1819C17.4164 10.8027 17.2911 11.3758 17.0327 11.9012C16.2887 10.9938 15.3803 10.5449 14.3153 10.5449H14.049C13.8219 9.41777 13.3834 8.49128 12.7334 7.76537ZM13.9864 2.76993C13.9864 2.98962 14.049 3.18065 14.1743 3.33347C14.2996 3.4863 14.4484 3.56271 14.6364 3.56271C14.8321 3.56271 14.9966 3.4863 15.1297 3.33347C15.2629 3.18065 15.3255 2.99917 15.3255 2.76993V0.811877C15.3255 0.592193 15.255 0.401163 15.1219 0.238787C14.9809 0.0764119 14.8165 0 14.6285 0C14.4484 0 14.2918 0.0764119 14.1665 0.238787C14.0412 0.401163 13.9785 0.592193 13.9785 0.811877V2.76993H13.9864ZM18.2857 4.93812C18.2857 5.14826 18.3483 5.34884 18.4736 5.51121C18.7634 5.85507 19.0844 5.85507 19.4368 5.51121L20.5567 4.14535C20.682 3.97342 20.7446 3.77284 20.7446 3.53405C20.7446 3.31437 20.682 3.12334 20.5567 2.97051C20.4314 2.81769 20.2748 2.74128 20.0947 2.74128C19.9067 2.74128 19.7501 2.81769 19.6248 2.97051L18.4814 4.37458C18.3483 4.54651 18.2857 4.73754 18.2857 4.93812ZM18.92 16.2089C18.92 16.4381 18.9905 16.6292 19.1236 16.782L19.6248 17.4028C19.7501 17.5556 19.9067 17.6321 20.079 17.6321C20.2434 17.6321 20.4001 17.5556 20.5567 17.4028C20.682 17.2404 20.7446 17.0303 20.7446 16.7915C20.7446 16.5814 20.682 16.3999 20.5567 16.2566L20.0477 15.6262C19.9067 15.4734 19.7501 15.397 19.5778 15.397C19.3899 15.397 19.2332 15.4734 19.1079 15.6358C18.9826 15.7886 18.92 15.9797 18.92 16.2089ZM20.079 10.1819C20.079 10.4111 20.1495 10.6022 20.2826 10.755C20.4001 10.9174 20.5567 10.9938 20.7446 10.9938H22.35C22.5301 10.9938 22.6868 10.9174 22.8121 10.755C22.9374 10.5926 23 10.4016 23 10.1819C23 9.95266 22.9374 9.76163 22.8121 9.6088C22.6868 9.45598 22.538 9.37957 22.35 9.37957H20.7446C20.5567 9.37957 20.4001 9.45598 20.2748 9.61836C20.1416 9.77118 20.079 9.96221 20.079 10.1819Z"
                fill="black"
              />
            </svg>