 <svg
              width="23"
              height="23"
              viewBox="0 0 23 23"
              fill="none"
              xmlns="http://www.w3.org/2000/svg"
            >
              <path
                d="M0 13.7023C0 14.4393 0.179955 15.1334 0.548435 15.7675C0.908346 16.4016 1.40537 16.9158 2.03949 17.3014C2.66505 17.687 3.35917 17.8927 4.09613 17.9098C4.19039 17.9098 4.2418 17.8584 4.2418 17.7642V16.6244C4.2418 16.5216 4.19039 16.4616 4.09613 16.4616C3.36773 16.4273 2.74218 16.136 2.22802 15.5876C1.71386 15.0391 1.45678 14.4136 1.45678 13.6937C1.45678 12.9911 1.69672 12.3741 2.18517 11.8428C2.67362 11.32 3.2649 11.0115 3.98472 10.9259L4.4389 10.8744C4.54173 10.8744 4.59314 10.823 4.59314 10.7116L4.6617 10.2746C4.75596 9.34054 5.14158 8.56073 5.82712 7.93517C6.51267 7.30961 7.32675 7.00112 8.26937 7.00112C9.20343 7.00112 10.0175 7.30961 10.7116 7.93517C11.4143 8.56073 11.8085 9.33197 11.8942 10.2489L11.9542 10.7459C11.9542 10.8402 12.0056 10.8916 12.0999 10.8916H13.4795C14.2507 10.8916 14.9106 11.1658 15.459 11.7142C16.0075 12.2627 16.2817 12.9139 16.2817 13.6766C16.2817 14.3964 16.0246 15.022 15.5104 15.5704C14.9963 16.1103 14.3707 16.4016 13.6509 16.4445C13.5481 16.4445 13.4881 16.4959 13.4881 16.6073V17.747C13.4881 17.8413 13.5395 17.8927 13.6509 17.8927C14.7906 17.8584 15.7504 17.43 16.5473 16.6073C17.3443 15.7846 17.7385 14.8163 17.7385 13.6852C17.7385 13.0339 17.6185 12.4598 17.37 11.9456C18.0127 11.1487 18.3554 10.206 18.3554 9.13487C18.3554 8.32936 18.1583 7.58383 17.7556 6.89829C17.3528 6.21274 16.8044 5.66431 16.1189 5.26155C15.4333 4.85879 14.6792 4.6617 13.8737 4.6617C12.554 4.6617 11.4486 5.15872 10.5574 6.14419C9.86326 5.76714 9.09203 5.57861 8.25224 5.57861C7.04396 5.57861 5.98137 5.95566 5.04732 6.70119C4.11326 7.44672 3.52198 8.40648 3.25633 9.56334C2.29657 9.80328 1.51677 10.3003 0.908346 11.063C0.299926 11.8342 0 12.7083 0 13.7023ZM4.69598 20.2835C4.69598 20.4635 4.76453 20.6263 4.90164 20.772C5.05589 20.9091 5.2187 20.9776 5.39866 20.9776C5.60432 20.9776 5.76714 20.9091 5.90425 20.7806C6.04136 20.6434 6.10134 20.4806 6.10134 20.2835C6.10134 20.0779 6.03279 19.9151 5.89568 19.7779C5.75857 19.6408 5.59575 19.5808 5.39009 19.5808C5.18443 19.5808 5.02161 19.6494 4.8845 19.7779C4.76453 19.9065 4.69598 20.0779 4.69598 20.2835ZM5.43294 17.1729C5.43294 17.3785 5.50149 17.5499 5.6386 17.6956C5.77571 17.8413 5.93852 17.9098 6.14419 17.9098C6.34128 17.9098 6.51267 17.8413 6.64978 17.6956C6.78689 17.5499 6.85544 17.3785 6.85544 17.1729C6.85544 16.9758 6.78689 16.813 6.64978 16.6759C6.51267 16.5387 6.34985 16.4702 6.14419 16.4702C5.94709 16.4702 5.77571 16.5387 5.6386 16.6759C5.50149 16.813 5.43294 16.9844 5.43294 17.1729ZM7.0611 21.9545C7.0611 22.1431 7.12966 22.3059 7.26677 22.443C7.41244 22.5887 7.57526 22.6572 7.76379 22.6572C7.96945 22.6572 8.14083 22.5887 8.27794 22.4601C8.42362 22.323 8.49218 22.1602 8.49218 21.9545C8.49218 21.7489 8.42362 21.5775 8.27794 21.4404C8.13227 21.2947 7.96088 21.2262 7.76379 21.2262C7.57526 21.2262 7.41244 21.2947 7.26677 21.4404C7.12966 21.5861 7.0611 21.7575 7.0611 21.9545ZM7.18964 3.20492C7.18964 3.41058 7.2582 3.58197 7.39531 3.71051L7.96088 4.27608C8.09799 4.41319 8.25224 4.49031 8.41505 4.49031C8.59501 4.51602 8.76639 4.45604 8.93778 4.30179C9.10917 4.14754 9.19486 3.96759 9.19486 3.76192C9.19486 3.55626 9.1263 3.36773 8.9892 3.21349L8.44076 2.69076C8.31222 2.54508 8.1494 2.47653 7.94374 2.47653C7.72951 2.47653 7.54955 2.54508 7.40388 2.69076C7.2582 2.82787 7.18964 2.99925 7.18964 3.20492ZM7.78949 18.8182C7.78949 19.0067 7.85805 19.1781 8.00373 19.3323C8.14083 19.4694 8.30365 19.538 8.49218 19.538C8.69784 19.538 8.86923 19.4694 9.0149 19.3323C9.16058 19.1952 9.22914 19.0238 9.22914 18.8182C9.22914 18.6211 9.16058 18.4497 9.0149 18.304C8.86923 18.1583 8.69784 18.0898 8.49218 18.0898C8.30365 18.0898 8.13227 18.1583 7.99516 18.304C7.85805 18.4497 7.78949 18.6211 7.78949 18.8182ZM8.15797 15.7332C8.15797 15.9303 8.22653 16.0931 8.36364 16.2303C8.50075 16.3674 8.67213 16.4359 8.86066 16.4359C9.06632 16.4359 9.23771 16.3674 9.37481 16.2303C9.52049 16.0931 9.58905 15.9303 9.58905 15.7247C9.58905 15.5276 9.52049 15.3562 9.37481 15.2191C9.22914 15.082 9.05775 15.0134 8.86066 15.0134C8.66356 15.0134 8.50075 15.082 8.36364 15.2191C8.22653 15.3562 8.15797 15.5361 8.15797 15.7332ZM10.1889 20.2835C10.1889 20.4635 10.2575 20.6263 10.386 20.772C10.5317 20.9091 10.7116 20.9776 10.9001 20.9776C11.1058 20.9776 11.2686 20.9091 11.4057 20.7806C11.5428 20.6434 11.6028 20.4806 11.6028 20.2835C11.6028 20.0779 11.5343 19.9151 11.4057 19.7779C11.2686 19.6408 11.1058 19.5808 10.9001 19.5808C10.6945 19.5808 10.5231 19.6494 10.386 19.7865C10.2489 19.9236 10.1889 20.0864 10.1889 20.2835ZM10.9173 17.1729C10.9173 17.3785 10.9858 17.5499 11.123 17.6956C11.2601 17.8413 11.4314 17.9098 11.6285 17.9098C11.8256 17.9098 11.997 17.8413 12.1341 17.6956C12.2712 17.5499 12.3398 17.3785 12.3398 17.1729C12.3398 16.9758 12.2712 16.813 12.1341 16.6759C11.997 16.5387 11.8342 16.4702 11.6285 16.4702C11.4229 16.4702 11.2601 16.5387 11.123 16.6759C10.9858 16.813 10.9173 16.9844 10.9173 17.1729ZM11.7571 6.95827C12.3484 6.3927 13.051 6.10991 13.8737 6.10991C14.7049 6.10991 15.4162 6.40984 15.9989 7.00112C16.5902 7.5924 16.8815 8.31222 16.8815 9.13487C16.8815 9.66617 16.7358 10.1975 16.4445 10.7116C15.6304 9.88897 14.6364 9.47765 13.4709 9.47765H13.1967C12.9396 8.47504 12.4598 7.63525 11.7571 6.95827ZM13.1282 2.4851C13.1282 2.68219 13.1967 2.85358 13.3424 2.98212C13.4881 3.11066 13.6595 3.17921 13.8651 3.17921C14.0708 3.17921 14.2336 3.11066 14.3707 2.98212C14.5078 2.84501 14.5678 2.68219 14.5678 2.4851V0.73696C14.5678 0.531297 14.4993 0.359911 14.3621 0.214233C14.225 0.0685544 14.0708 0 13.8737 0C13.6766 0 13.5052 0.0771237 13.3595 0.222802C13.2139 0.36848 13.1367 0.539866 13.1367 0.73696V2.4851H13.1282ZM17.8584 4.43033C17.8584 4.62742 17.927 4.79881 18.0727 4.93592C18.2012 5.07303 18.364 5.14158 18.5525 5.15872C18.7411 5.17586 18.921 5.09873 19.0838 4.93592L20.3092 3.71051C20.4635 3.55626 20.532 3.38487 20.532 3.18778C20.532 2.98212 20.4549 2.81073 20.3092 2.66505C20.1636 2.51937 19.9922 2.45082 19.7951 2.45082C19.6066 2.45082 19.4437 2.51937 19.2981 2.66505L18.0727 3.91617C17.927 4.05328 17.8584 4.22466 17.8584 4.43033ZM18.544 14.5421C18.544 14.7563 18.6125 14.9363 18.7496 15.0734L19.2981 15.6133C19.5037 15.7504 19.6923 15.8189 19.8465 15.8189C20.0265 15.8189 20.1807 15.7418 20.3264 15.5961C20.4721 15.4504 20.5406 15.2705 20.5406 15.0734C20.5406 14.8763 20.4635 14.7135 20.3178 14.5764L19.7865 14.0194C19.6323 13.8823 19.4609 13.8137 19.2638 13.8137C19.0667 13.8137 18.8953 13.8823 18.7582 14.0279C18.6125 14.1651 18.544 14.3364 18.544 14.5421ZM19.7865 9.13487C19.7865 9.34054 19.8636 9.50335 20.0093 9.64046C20.155 9.79471 20.3349 9.87183 20.5406 9.87183H22.2716C22.4687 9.87183 22.6401 9.80328 22.7858 9.6576C22.9314 9.51192 23 9.34054 23 9.13487C23 8.92921 22.9314 8.75782 22.7858 8.62072C22.6401 8.48361 22.4687 8.40648 22.2716 8.40648H20.5406C20.3349 8.40648 20.1636 8.47504 20.0093 8.62072C19.8551 8.76639 19.7865 8.93778 19.7865 9.13487Z"
                fill="black"
              />
            </svg>