 <svg
              width="23"
              height="23"
              viewBox="0 0 23 23"
              fill="none"
              xmlns="http://www.w3.org/2000/svg"
            >
              <path
                d="M0 17.563C0 18.5516 0.188244 19.4632 0.564732 20.298C0.94122 21.1328 1.45461 21.7918 2.10491 22.2751C2.75521 22.7584 3.45684 23 4.21838 23H13.4851C14.2467 23 14.9568 22.7584 15.6071 22.2751C16.2574 21.7918 16.7794 21.1328 17.1559 20.298C17.5324 19.4632 17.7292 18.5516 17.7292 17.563C17.7292 16.8381 17.6094 16.1022 17.3698 15.3663C18.0201 14.3558 18.3452 13.1366 18.3452 11.7416C18.3452 10.9618 18.2254 10.2149 17.9944 9.50096C17.7634 8.78701 17.4382 8.1829 17.0361 7.66667C16.6339 7.15043 16.1633 6.73305 15.6071 6.43649C15.051 6.12894 14.4691 5.98615 13.8616 5.98615C12.5952 5.98615 11.4914 6.62321 10.5417 7.89733C9.88281 7.41404 9.11272 7.1724 8.2314 7.1724C7.02493 7.1724 5.96391 7.65568 5.03981 8.61127C4.1157 9.56686 3.51674 10.797 3.26004 12.2908C2.30171 12.5764 1.52307 13.2025 0.915551 14.191C0.308036 15.1796 0 16.2999 0 17.563ZM1.46317 17.563C1.46317 16.6404 1.70275 15.8496 2.18192 15.1796C2.66109 14.5096 3.26004 14.1251 3.97879 14.0153L4.40662 13.9823C4.5093 13.9823 4.5692 13.9164 4.5692 13.7846L4.62909 13.1915C4.74888 12.0053 5.15104 11.0057 5.83557 10.2149C6.52009 9.41308 7.3244 9.01767 8.23995 9.01767C9.18117 9.01767 10.0026 9.42407 10.6957 10.2259C11.3973 11.0277 11.7824 12.0162 11.8679 13.2025L11.9278 13.8395C11.9449 13.9604 12.0048 14.0263 12.1075 14.0263H13.4851C14.2381 14.0263 14.8884 14.3777 15.436 15.0807C15.9836 15.7837 16.2574 16.6074 16.2574 17.574C16.2574 18.5735 15.9836 19.4193 15.4446 20.1223C14.9055 20.8252 14.2467 21.1767 13.4937 21.1767H4.21838C3.4654 21.1767 2.82366 20.8252 2.27604 20.1113C1.73698 19.3973 1.46317 18.5516 1.46317 17.563ZM7.19606 4.08596C7.19606 4.34957 7.26451 4.58023 7.40141 4.77794L7.96614 5.4809C8.18006 5.68959 8.35975 5.77746 8.51377 5.75549C8.69345 5.75549 8.84747 5.65664 8.98437 5.46991C9.12128 5.28319 9.18973 5.05253 9.18973 4.78892C9.18973 4.52531 9.11272 4.30563 8.96726 4.14088L8.46242 3.41595C8.30841 3.24021 8.13728 3.15234 7.94048 3.15234C7.73512 3.15234 7.55543 3.24021 7.40997 3.42693C7.26451 3.60267 7.19606 3.82235 7.19606 4.08596ZM11.7653 8.95177C12.3557 8.21586 13.0573 7.85339 13.8616 7.85339C14.7087 7.85339 15.4275 8.22684 16.0179 8.98472C16.6083 9.7426 16.9077 10.6543 16.9077 11.7416C16.9077 12.4226 16.7623 13.1036 16.4714 13.7627C15.6414 12.7082 14.6488 12.181 13.4851 12.181H13.2113C12.9974 10.9838 12.5182 9.90735 11.7653 8.95177ZM13.16 3.15234C13.16 3.43792 13.2284 3.65759 13.3568 3.83333C13.4851 4.00907 13.6562 4.08596 13.8616 4.08596C14.0841 4.08596 14.2552 3.99809 14.3921 3.83333C14.529 3.65759 14.5889 3.43792 14.5889 3.15234V0.900669C14.5889 0.637058 14.5205 0.428367 14.3836 0.252626C14.2467 0.0768863 14.0755 0 13.8616 0C13.6562 0 13.4937 0.0878701 13.3568 0.252626C13.2199 0.417383 13.16 0.637058 13.16 0.900669V3.15234ZM17.8832 5.66762C17.8832 5.9532 17.9431 6.17287 18.0714 6.34862C18.2511 6.52436 18.4308 6.61223 18.6019 6.61223C18.756 6.61223 18.9271 6.52436 19.1068 6.34862L20.3304 4.77794C20.4673 4.58023 20.5357 4.34957 20.5357 4.07498C20.5357 3.81137 20.4673 3.59169 20.3304 3.41595C20.1935 3.24021 20.0223 3.15234 19.8255 3.15234C19.6202 3.15234 19.4576 3.24021 19.3292 3.41595L18.0714 4.98663C17.9431 5.19532 17.8832 5.415 17.8832 5.66762ZM18.5592 18.6724C18.5592 18.936 18.6276 19.1667 18.7731 19.3644L19.3292 20.0564C19.4576 20.2321 19.6202 20.32 19.8255 20.32C20.0309 20.32 20.202 20.2321 20.3389 20.0454C20.4758 19.8586 20.5443 19.639 20.5443 19.3644C20.5443 19.1227 20.4758 18.9031 20.3389 18.7273L19.7827 18.0134C19.6458 17.8376 19.4833 17.7498 19.295 17.7498C19.0897 17.7498 18.9185 17.8376 18.7816 18.0134C18.6362 18.1891 18.5592 18.4088 18.5592 18.6724ZM19.817 11.7416C19.817 11.9943 19.894 12.203 20.0394 12.3787C20.1763 12.5544 20.356 12.6423 20.5614 12.6423H22.3069C22.5037 12.6423 22.6663 12.5544 22.8032 12.3897C22.9401 12.2249 23 12.0053 23 11.7416C23 11.478 22.9315 11.2584 22.8032 11.0826C22.6748 10.9069 22.5037 10.808 22.3069 10.808H20.5614C20.356 10.808 20.1849 10.8959 20.0394 11.0826C19.8854 11.2693 19.817 11.489 19.817 11.7416Z"
                fill="black"
              />
            </svg>