 <svg
              width="23"
              height="23"
              viewBox="0 0 23 23"
              fill="none"
              xmlns="http://www.w3.org/2000/svg"
            >
              <path
                d="M0 13.6805C0 14.6278 0.281633 15.4642 0.836364 16.2067C1.39109 16.9492 2.12505 17.4527 3.02968 17.7258L2.48349 19.1766C2.44935 19.2961 2.48349 19.3558 2.60297 19.3558H4.42078L3.35399 22.7269H3.60148L7.1603 18.1269C7.19443 18.0928 7.19443 18.0501 7.16883 18.0074C7.15176 17.9647 7.10909 17.9477 7.04935 17.9477H5.1974L7.30538 13.9963C7.36512 13.8768 7.32245 13.8085 7.1859 13.8085H4.67681C4.6 13.8085 4.53173 13.8512 4.48052 13.928L3.56735 16.3859C2.96141 16.2323 2.45789 15.8994 2.05677 15.3959C1.65566 14.8924 1.45937 14.3206 1.45937 13.6805C1.45937 12.9722 1.69833 12.3577 2.18479 11.8286C2.67124 11.2994 3.26865 11.0007 3.97699 10.9154L4.42078 10.8642C4.53173 10.8642 4.59147 10.813 4.59147 10.7106L4.64267 10.2753C4.73655 9.35362 5.12913 8.57699 5.82041 7.95399C6.51169 7.33098 7.33098 7.01521 8.26122 7.01521C9.19147 7.01521 10.0022 7.33098 10.6935 7.95399C11.3848 8.57699 11.7859 9.35362 11.8883 10.2753L11.9395 10.7703C11.9395 10.8642 11.9907 10.9154 12.0931 10.9154H13.4672C14.2438 10.9154 14.9009 11.1885 15.4471 11.7262C15.9933 12.2638 16.2664 12.9124 16.2664 13.6805C16.2664 14.4059 16.0104 15.0375 15.5069 15.5666C15.0033 16.0957 14.3803 16.3944 13.6378 16.4542C13.5269 16.4542 13.4672 16.5054 13.4672 16.6078V17.777C13.4672 17.8709 13.5269 17.9221 13.6378 17.9221C14.7729 17.8879 15.7373 17.4527 16.531 16.6334C17.3247 15.8141 17.7173 14.8327 17.7173 13.6891C17.7173 13.0575 17.5978 12.4857 17.3503 11.9737C18.0245 11.1544 18.3573 10.2156 18.3573 9.14026C18.3573 8.33803 18.1525 7.59555 17.7514 6.90427C17.3503 6.21299 16.8041 5.66679 16.1128 5.26568C15.4215 4.86456 14.679 4.65974 13.8768 4.65974C12.5625 4.65974 11.4531 5.15473 10.5655 6.13618C9.87421 5.7692 9.10612 5.58145 8.26122 5.58145C7.05789 5.58145 5.98256 5.95696 5.05232 6.69944C4.12208 7.44193 3.52468 8.39777 3.26011 9.56697C2.3128 9.78887 1.53618 10.2753 0.930241 11.0434C0.324304 11.8115 0 12.6991 0 13.6805ZM6.90427 21.8564C6.89573 21.9844 6.92987 22.1124 7.02375 22.2319C7.11762 22.3514 7.24564 22.4453 7.41633 22.5135C7.47607 22.5306 7.53581 22.5391 7.59555 22.5391C7.74063 22.5391 7.88571 22.4965 8.0308 22.4111C8.17588 22.3258 8.26976 22.1892 8.32096 22.01L10.2753 14.6961C10.3265 14.4998 10.3095 14.3121 10.2156 14.1499C10.1217 13.9792 9.98516 13.8683 9.7974 13.8085C9.60111 13.7488 9.41336 13.7659 9.24267 13.8683C9.07199 13.9622 8.95251 14.1072 8.9013 14.3035L6.92987 21.643C6.9128 21.7028 6.90427 21.7796 6.90427 21.8564ZM7.1859 3.20891C7.1859 3.41373 7.25417 3.57588 7.39926 3.71243L7.94545 4.2757C8.09054 4.42078 8.26122 4.48905 8.46605 4.49759C8.67087 4.49759 8.83302 4.42931 8.9525 4.2757C9.11466 4.14768 9.19147 3.97699 9.19147 3.76364C9.19147 3.55881 9.12319 3.39666 8.97811 3.26011L8.44044 2.69685C8.29536 2.5603 8.11614 2.49202 7.91985 2.49202C7.70649 2.49202 7.52727 2.5603 7.39072 2.69685C7.25417 2.8334 7.1859 3.00408 7.1859 3.20891ZM10.4545 19.2534C10.4545 19.3558 10.4887 19.4583 10.5484 19.5777C10.6594 19.7484 10.7959 19.8679 10.9751 19.9447C11.0349 19.9703 11.1202 19.9874 11.2312 19.9874C11.3592 19.9874 11.4531 19.9703 11.5128 19.9362C11.6835 19.8679 11.803 19.6972 11.8627 19.4412L13.1343 14.7046C13.1855 14.4998 13.1685 14.3206 13.0746 14.1499C12.9807 13.9878 12.8356 13.8768 12.6393 13.8171C12.443 13.7573 12.2553 13.7744 12.0931 13.8768C11.9224 13.9707 11.8115 14.1158 11.7603 14.3121L10.4801 19.0571C10.4801 19.0742 10.4716 19.1083 10.4631 19.151C10.4545 19.2022 10.4545 19.2278 10.4545 19.2534ZM11.7603 6.97254C12.3321 6.42634 13.0319 6.14471 13.8768 6.14471C14.7046 6.14471 15.4215 6.43488 16.0104 7.01521C16.5993 7.59555 16.898 8.30389 16.898 9.13172C16.898 9.66085 16.7529 10.19 16.4542 10.7106C15.6093 9.87421 14.6108 9.45603 13.4672 9.45603H13.2026C12.938 8.45751 12.4516 7.62968 11.7603 6.97254ZM13.1343 2.49202C13.1343 2.68831 13.2111 2.859 13.3562 3.00408C13.5013 3.14916 13.672 3.22597 13.8683 3.22597C14.0731 3.22597 14.2353 3.1577 14.3718 3.01262C14.5083 2.86753 14.5681 2.69685 14.5681 2.49202V0.733952C14.5681 0.529128 14.4998 0.358442 14.3718 0.213358C14.2438 0.0682746 14.0731 0 13.8683 0C13.672 0 13.5013 0.0682746 13.3562 0.213358C13.2111 0.358442 13.1343 0.529128 13.1343 0.733952V2.49202ZM17.8538 4.43785C17.8538 4.64267 17.9306 4.81336 18.0757 4.94991C18.1952 5.09499 18.3573 5.16326 18.5622 5.16326C18.767 5.16326 18.9377 5.09499 19.0742 4.94991L20.3032 3.71243C20.4482 3.57588 20.525 3.41373 20.525 3.20891C20.525 3.00408 20.4568 2.83339 20.3117 2.68831C20.1666 2.54323 19.9959 2.47495 19.7911 2.47495C19.6033 2.47495 19.4412 2.55176 19.3046 2.69685L18.0757 3.92579C17.9306 4.06234 17.8538 4.23302 17.8538 4.43785ZM18.5451 14.5596C18.5451 14.7473 18.6134 14.918 18.7499 15.0716L19.3132 15.6093C19.4156 15.7288 19.5777 15.8056 19.774 15.8141L19.7826 15.8226H19.8252H19.8679C20.0301 15.8226 20.1751 15.7458 20.3202 15.6007C20.4653 15.4642 20.5421 15.2935 20.5421 15.0887C20.5421 14.8924 20.4653 14.7217 20.3202 14.5681L19.7655 14.0475C19.6289 13.8939 19.4583 13.8171 19.2705 13.8171C19.0742 13.8171 18.9035 13.8853 18.7584 14.0304C18.6134 14.184 18.5451 14.3633 18.5451 14.5596ZM19.7826 9.14026C19.7826 9.33655 19.8594 9.50723 20.013 9.65232C20.1666 9.80594 20.3373 9.88274 20.5336 9.88274H22.266C22.4623 9.88274 22.633 9.80594 22.7781 9.66085C22.9232 9.51577 23 9.33655 23 9.14026C23 8.94397 22.9317 8.77328 22.7866 8.63673C22.6416 8.50018 22.4709 8.43191 22.266 8.43191H20.5336C20.3202 8.43191 20.141 8.50018 19.9959 8.63673C19.8508 8.77328 19.7826 8.94397 19.7826 9.14026Z"
                fill="black"
              />
            </svg>