 <svg
              width="23"
              height="23"
              viewBox="0 0 23 23"
              fill="none"
              xmlns="http://www.w3.org/2000/svg"
            >
              <path
                d="M0 18.4029C0 18.6733 0.0745845 18.8967 0.233077 19.0731C0.391569 19.2612 0.587353 19.3435 0.811107 19.3435H18.1613C18.3851 19.3435 18.5715 19.2494 18.7207 19.0731C18.8792 18.885 18.9538 18.6616 18.9538 18.4029C18.9538 18.1207 18.8792 17.8738 18.73 17.6857C18.5809 17.4859 18.3851 17.3918 18.1613 17.3918H0.811107C0.587353 17.3918 0.400892 17.4859 0.2424 17.6857C0.0839076 17.8856 0 18.1325 0 18.4029ZM2.43332 14.7464C2.43332 15.0286 2.51723 15.252 2.67572 15.4401C2.80624 15.6517 2.98338 15.7575 3.22578 15.7575H20.576C20.7904 15.7575 20.9676 15.6635 21.1167 15.4636C21.2659 15.2637 21.3312 15.0286 21.3312 14.7464C21.3312 14.476 21.2566 14.2409 21.1167 14.0645C20.9769 13.8881 20.7904 13.7941 20.576 13.7941H3.22578C3.00203 13.7941 2.81557 13.8881 2.6664 14.0645C2.5079 14.2526 2.43332 14.476 2.43332 14.7464ZM2.57317 11.9012V11.8424C2.53587 12.0187 2.57317 12.101 2.68504 12.101H4.02756C4.0835 12.101 4.13944 12.0422 4.2047 11.9247C4.42846 11.3133 4.75476 10.8195 5.19295 10.4315C5.63113 10.0435 6.11593 9.82013 6.63802 9.7731L7.13215 9.67904C7.24402 9.67904 7.30928 9.6085 7.30928 9.46741L7.36522 8.87955C7.46778 7.60977 7.88731 6.56337 8.63316 5.70509C9.379 4.85857 10.2647 4.43531 11.2809 4.43531C12.2785 4.43531 13.1642 4.85857 13.91 5.69334C14.6559 6.5281 15.094 7.57449 15.1966 8.83252L15.2619 9.50268C15.2619 9.64377 15.3271 9.71431 15.4576 9.71431H16.9307C17.5274 9.71431 18.0774 9.91419 18.5622 10.3257C19.047 10.7254 19.4199 11.2663 19.653 11.9247C19.7183 12.0422 19.7835 12.101 19.8581 12.101H21.182C21.2939 12.101 21.3405 12.0187 21.3218 11.8424C21.1167 11.184 20.9769 10.7725 20.893 10.5961C21.5642 9.83189 22.0397 8.82076 22.2914 7.5745L22.4499 6.79852C22.4779 6.72797 22.4686 6.65743 22.4406 6.6104C22.4126 6.56337 22.3754 6.5281 22.3287 6.5281L21.7507 6.26944C20.921 5.96375 20.287 5.35238 19.8488 4.4118C19.4106 3.47122 19.2987 2.47185 19.5039 1.40194L19.6251 0.720021C19.6717 0.614206 19.6344 0.520148 19.5039 0.449605L18.7207 0.179188C17.7045 -0.138257 16.6976 -0.0324425 15.7187 0.484876C14.7398 1.0022 13.9753 1.83696 13.4159 2.97741C12.6794 2.61294 11.9615 2.43658 11.2809 2.43658C9.985 2.43658 8.83827 2.9539 7.82205 3.97678C6.80584 4.99966 6.16255 6.31647 5.86421 7.91546C5.08107 8.1506 4.39116 8.62089 3.79449 9.33808C3.19781 10.0553 2.80624 10.9136 2.57317 11.9012ZM4.04621 21.9889C4.04621 22.2711 4.13012 22.4944 4.28861 22.6826C4.4471 22.8942 4.63356 23 4.83867 23H22.2262C22.4406 23 22.6271 22.9059 22.7762 22.7061C22.9254 22.5062 23 22.2711 23 21.9889C23 21.7185 22.9254 21.4951 22.7762 21.307C22.6271 21.1188 22.4406 21.0365 22.2262 21.0365H4.84799C4.62424 21.0365 4.43778 21.1306 4.28861 21.307C4.13012 21.4951 4.04621 21.7185 4.04621 21.9889ZM14.7771 4.03556C15.1034 3.3654 15.5415 2.83633 16.0916 2.47185C16.6417 2.10738 17.2197 1.95453 17.835 2.02508C17.7698 3.24783 17.9935 4.40004 18.4876 5.46995C18.9911 6.53986 19.681 7.32759 20.5574 7.84491C20.4175 8.25642 20.1844 8.67968 19.8581 9.10294C19.0004 8.20939 18.0215 7.77437 16.9307 7.77437H16.6323C16.334 6.23417 15.7187 4.9879 14.7771 4.03556Z"
                fill="black"
              />
            </svg>