  <svg
              width="23"
              height="24"
              viewBox="0 0 23 24"
              fill="none"
              xmlns="http://www.w3.org/2000/svg"
            >
              <path
                d="M0 12.2168C0 13.3868 0.347846 14.4303 1.04354 15.3579C1.73923 16.2855 2.64574 16.9074 3.76306 17.2447L3.06737 19.0261C3.03575 19.1737 3.08845 19.2475 3.22548 19.2475H5.46013L4.43767 22.9473H4.74335L8.8648 17.7401C8.90697 17.6874 8.90697 17.6347 8.87534 17.582C8.84372 17.5293 8.79102 17.5082 8.71723 17.5082H6.41934L9.03346 12.6279C9.10724 12.4803 9.06508 12.396 8.89643 12.396H5.77635C5.68149 12.396 5.6077 12.4487 5.53391 12.5435L4.40605 15.5793C3.64711 15.3895 3.02521 14.9785 2.52979 14.346C2.03437 13.7136 1.79193 13.0073 1.79193 12.2273C1.79193 11.3524 2.08708 10.5935 2.6879 9.93996C3.28873 9.28643 4.02658 8.91751 4.90147 8.8121L5.44959 8.72777C5.58662 8.72777 5.6604 8.66453 5.6604 8.54858L5.73419 8.00046C5.85014 6.86205 6.32447 5.90284 7.17828 5.13336C8.03208 4.36389 9.03346 3.97388 10.1824 3.97388C11.3208 3.97388 12.3222 4.36389 13.1865 5.13336C14.0509 5.90284 14.5463 6.86205 14.6728 7.98992L14.7466 8.61182C14.7466 8.72777 14.8098 8.79102 14.9363 8.79102H16.6439C17.6031 8.79102 18.4148 9.12832 19.0999 9.79239C19.7851 10.4565 20.1224 11.2681 20.1224 12.2062C20.1224 13.1022 19.8061 13.8822 19.1737 14.5357C18.5412 15.1893 17.7718 15.5582 16.8547 15.632C16.7282 15.632 16.6544 15.6952 16.6544 15.8112V17.2658C16.6544 17.3923 16.7177 17.4555 16.8547 17.4555C17.7823 17.4239 18.6256 17.1709 19.395 16.6966C20.1645 16.2223 20.7759 15.5898 21.2186 14.7993C21.6613 14.0087 21.8827 13.1444 21.8827 12.2168C21.8827 11.2997 21.6508 10.4459 21.187 9.63428C22.0197 8.83318 22.5678 7.91613 22.8313 6.87259L22.9789 6.11366C22.9895 6.10312 23 6.07149 23 6.03987C23 5.96609 22.9473 5.91338 22.8313 5.88176L22.2411 5.69202C21.6402 5.52337 21.1237 5.22823 20.7021 4.82768C20.2699 4.42713 19.9643 3.98442 19.7851 3.53116C19.6059 3.06737 19.511 2.60357 19.511 2.13978C19.511 1.86572 19.5426 1.58112 19.5953 1.29652L19.7429 0.653529C19.7851 0.548121 19.7429 0.463794 19.5953 0.411091C19.374 0.316223 19.0577 0.231897 18.6467 0.13703C18.2356 0.0421633 17.835 0 17.4345 0C17.055 0 16.665 0.0421633 16.2539 0.13703C15.8533 0.231897 15.4317 0.368928 14.9995 0.569202C14.5674 0.758937 14.1457 1.04354 13.7346 1.41247C13.3236 1.78139 12.9757 2.20302 12.6806 2.69844C11.8162 2.38222 10.973 2.22411 10.1719 2.22411C8.68561 2.22411 7.35747 2.6879 6.20852 3.60495C5.05958 4.522 4.31118 5.70257 3.98442 7.14665C2.81439 7.42071 1.85518 8.03208 1.09624 8.98075C0.379468 9.90834 0 10.994 0 12.2168ZM8.53804 22.5678C8.53804 22.7365 8.59074 22.9051 8.69615 23.0527C8.80156 23.2108 8.95967 23.3162 9.17049 23.3689C9.28643 23.39 9.39184 23.4005 9.48671 23.4005C9.91888 23.4005 10.1824 23.1792 10.2878 22.7365L12.7333 13.4711C12.7965 13.2181 12.7754 12.9968 12.6595 12.786C12.5435 12.5752 12.3643 12.4381 12.1324 12.3749C11.89 12.3011 11.6581 12.3222 11.4473 12.4381C11.2365 12.5541 11.0889 12.7227 11.0257 12.9546L8.5802 22.2727C8.54858 22.3781 8.53804 22.473 8.53804 22.5678ZM12.9335 19.3845C12.9335 19.5532 12.9863 19.7218 13.0917 19.8694C13.1971 20.017 13.3552 20.1329 13.5765 20.1961C13.6082 20.1961 13.6609 20.1961 13.7346 20.2067C13.8084 20.2172 13.8717 20.2172 13.9033 20.2172C14.3039 20.2172 14.5568 19.9959 14.6622 19.5532L16.2434 13.4711C16.3066 13.2181 16.2855 12.9862 16.159 12.7754C16.0431 12.5752 15.8639 12.4381 15.6214 12.3749C15.379 12.3011 15.1471 12.3222 14.9363 12.4381C14.7255 12.5541 14.5885 12.7227 14.5252 12.9652L12.9441 19.0999C12.9441 19.2053 12.9335 19.3002 12.9335 19.3845ZM14.2406 3.64711C14.5885 3.04629 15.0522 2.59303 15.6425 2.27681C16.2223 1.96059 16.8442 1.80247 17.4977 1.80247C17.6242 1.80247 17.7296 1.80247 17.7823 1.81302V2.15032C17.7823 3.16224 18.0564 4.12145 18.6045 5.02796C19.1526 5.93446 19.9221 6.61961 20.8918 7.10449C20.7021 7.5472 20.428 7.91613 20.0591 8.23236C19.0894 7.39963 17.9615 6.98854 16.665 6.98854H16.3277C16.0325 5.6604 15.3368 4.55362 14.2406 3.64711Z"
                fill="black"
              />
            </svg>