<svg
              width="23"
              height="24"
              viewBox="0 0 23 24"
              fill="none"
              xmlns="http://www.w3.org/2000/svg"
            >
              <path
                d="M0 12.2049C0 13.6043 0.49451 14.8037 1.47301 15.8138C2.45151 16.8239 3.65096 17.3605 5.05032 17.4026C5.17658 17.4026 5.23971 17.3394 5.23971 17.2237V15.8138C5.23971 15.6981 5.17658 15.6349 5.05032 15.6349C4.15599 15.5929 3.38792 15.2246 2.75663 14.5512C2.11482 13.8779 1.79918 13.0887 1.79918 12.1944C1.79918 11.3001 2.09378 10.532 2.6935 9.87969C3.29323 9.22735 4.02973 8.86962 4.90302 8.79597L5.46066 8.72232C5.59744 8.72232 5.67109 8.65919 5.67109 8.54346L5.74474 7.99634C5.86048 6.8495 6.33394 5.88152 7.18618 5.10293C8.03843 4.32434 9.03797 3.93504 10.1953 3.93504C11.3422 3.93504 12.3417 4.32434 13.2045 5.09241C14.0672 5.86048 14.5512 6.81793 14.6775 7.95425L14.7617 8.55398C14.7617 8.68024 14.8248 8.74337 14.9405 8.74337H16.645C17.6025 8.74337 18.4126 9.08005 19.0965 9.76395C19.7804 10.4373 20.1171 11.2475 20.1171 12.1944C20.1171 13.0887 19.8015 13.8779 19.1597 14.5512C18.5178 15.2246 17.7603 15.5823 16.866 15.6349C16.7187 15.6349 16.645 15.6981 16.645 15.8138V17.2237C16.645 17.3394 16.7187 17.4026 16.866 17.4026C17.7919 17.3815 18.6336 17.129 19.4016 16.6555C20.1697 16.1821 20.78 15.5508 21.2219 14.7617C21.6638 13.9726 21.8847 13.1203 21.8847 12.2049C21.8847 11.2475 21.6532 10.3742 21.2008 9.59561C21.9794 8.90119 22.5055 7.99634 22.8001 6.88106L22.979 6.12351C22.9895 6.11299 23 6.08143 23 6.03934C23 5.96569 22.9474 5.90256 22.8317 5.871L22.1898 5.69213C21.7269 5.55535 21.3166 5.35544 20.9588 5.09241C20.6011 4.82937 20.317 4.53477 20.1066 4.2086C19.8962 3.88243 19.7489 3.55627 19.6436 3.20906C19.5384 2.87237 19.4858 2.53568 19.4858 2.20951C19.4858 1.92543 19.5174 1.62031 19.591 1.30467L19.7068 0.652333C19.7278 0.557639 19.6857 0.473468 19.5595 0.42086L18.7177 0.168344C18.2548 0.0526073 17.8234 0 17.4026 0C17.0133 0 16.624 0.0420861 16.2242 0.13678C15.8243 0.231473 15.414 0.368252 14.9826 0.568161C14.5512 0.768069 14.1409 1.04163 13.7411 1.40988C13.3413 1.77813 12.9941 2.19899 12.6995 2.6935C11.8472 2.34629 11.016 2.16743 10.1953 2.16743C8.7118 2.16743 7.38609 2.63037 6.23925 3.55627C5.09241 4.48216 4.34538 5.66057 4.01921 7.10201C2.8408 7.39661 1.87283 8.01738 1.1258 8.9538C0.378774 9.90073 0 10.9844 0 12.2049ZM6.72324 16.5082C6.72324 16.7607 6.80741 16.9712 6.97575 17.1395C7.1441 17.3184 7.34401 17.4026 7.59652 17.4026C7.84904 17.4026 8.05947 17.3184 8.22781 17.1395C8.39616 16.9607 8.48033 16.7502 8.48033 16.5082C8.48033 16.2768 8.39616 16.0663 8.22781 15.898C8.05947 15.7296 7.84904 15.6455 7.59652 15.6455C7.35453 15.6455 7.1441 15.7296 6.97575 15.898C6.80741 16.0663 6.72324 16.2662 6.72324 16.5082ZM6.72324 20.3381C6.72324 20.5801 6.80741 20.78 6.97575 20.9483C7.1441 21.1166 7.35453 21.2008 7.586 21.2008C7.83852 21.2008 8.04895 21.1166 8.21729 20.9588C8.38564 20.7905 8.46981 20.5906 8.46981 20.3381C8.46981 20.0855 8.38564 19.8856 8.21729 19.7173C8.04895 19.5489 7.83852 19.4753 7.586 19.4753C7.33349 19.4753 7.13358 19.5595 6.96523 19.7173C6.80741 19.8751 6.72324 20.0855 6.72324 20.3381ZM10.0901 18.5494C10.0901 18.8019 10.1743 19.0123 10.3426 19.1702C10.511 19.3385 10.7214 19.4227 10.9529 19.4227C11.2054 19.4227 11.4158 19.3385 11.5947 19.1702C11.7736 19.0018 11.8577 18.7914 11.8577 18.5494C11.8577 18.2969 11.7736 18.0865 11.5947 17.9076C11.4158 17.7287 11.2054 17.634 10.9529 17.634C10.7214 17.634 10.5215 17.7287 10.3426 17.9076C10.1638 18.0865 10.0901 18.2969 10.0901 18.5494ZM10.0901 14.7196C10.0901 14.9721 10.1743 15.172 10.3426 15.3298C10.511 15.4982 10.7214 15.5823 10.9529 15.5823C11.2054 15.5823 11.4263 15.4982 11.5947 15.3403C11.763 15.1825 11.8577 14.9721 11.8577 14.7196C11.8577 14.4776 11.7736 14.2672 11.5947 14.0883C11.4158 13.9094 11.2054 13.8252 10.9529 13.8252C10.7214 13.8252 10.511 13.9094 10.3426 14.0883C10.1743 14.2672 10.0901 14.4776 10.0901 14.7196ZM10.0901 22.4108C10.0901 22.6423 10.1743 22.8422 10.3426 23.0105C10.5215 23.1894 10.7214 23.2736 10.9529 23.2736C11.2054 23.2736 11.4158 23.1894 11.5947 23.021C11.7736 22.8527 11.8577 22.6528 11.8577 22.4003C11.8577 22.1478 11.7736 21.9373 11.5947 21.7585C11.4158 21.5796 11.2054 21.4849 10.9529 21.4849C10.7214 21.4849 10.5215 21.5796 10.3426 21.7585C10.1848 21.9478 10.0901 22.1688 10.0901 22.4108ZM13.4991 16.5082C13.4991 16.7607 13.5833 16.9712 13.7621 17.1395C13.941 17.3079 14.1409 17.4026 14.3934 17.4026C14.6459 17.4026 14.8458 17.3184 15.0142 17.1395C15.1825 16.9607 15.2667 16.7502 15.2667 16.5082C15.2667 16.2768 15.1825 16.0663 15.0142 15.898C14.8458 15.7296 14.6459 15.6455 14.3934 15.6455C14.1409 15.6455 13.941 15.7296 13.7621 15.898C13.5833 16.0663 13.4991 16.2662 13.4991 16.5082ZM13.4991 20.3381C13.4991 20.5801 13.5833 20.78 13.7516 20.9483C13.9199 21.1166 14.1304 21.2008 14.3829 21.2008C14.6354 21.2008 14.8353 21.1166 15.0037 20.9483C15.172 20.78 15.2457 20.5801 15.2457 20.3275C15.2457 20.075 15.1615 19.8751 15.0037 19.7068C14.8353 19.5384 14.6354 19.4648 14.3829 19.4648C14.1304 19.4648 13.9199 19.5489 13.7516 19.7068C13.5833 19.8751 13.4991 20.0855 13.4991 20.3381ZM14.2145 3.6194C14.5407 3.05124 15.0037 2.60933 15.5823 2.29369C16.161 1.97804 16.7608 1.82022 17.3815 1.8097C17.5393 1.8097 17.6551 1.82022 17.7287 1.83074V2.15691C17.7287 3.17749 18.0023 4.13495 18.5494 5.0398C19.0965 5.94465 19.8646 6.62854 20.8326 7.10201C20.6642 7.48079 20.4012 7.85956 20.0329 8.22781C19.0965 7.39661 17.9707 6.98628 16.6345 6.98628H16.3083C16.0242 5.69213 15.3298 4.57685 14.2145 3.6194Z"
                fill="black"
              />
            </svg>