<svg
              width="23"
              height="25"
              viewBox="0 0 23 25"
              fill="none"
              xmlns="http://www.w3.org/2000/svg"
            >
              <path
                d="M0 12.1715C0 13.3467 0.346259 14.396 1.04927 15.3193C1.75228 16.2427 2.64416 16.8618 3.74589 17.1766C3.84033 17.1975 3.92427 17.1661 3.99772 17.0926L5.18339 15.6236C4.26004 15.6236 3.47308 15.2879 2.80155 14.6058C2.13002 13.9238 1.79425 13.1159 1.79425 12.1715C1.79425 11.2901 2.08805 10.5347 2.67564 9.89462C3.26323 9.25456 4.00821 8.89781 4.8896 8.81387L5.41423 8.74042C5.54015 8.74042 5.61359 8.67746 5.61359 8.54106L5.69754 7.98494C5.82345 6.84124 6.31661 5.88641 7.17701 5.12044C8.02692 4.35447 9.03422 3.96624 10.1779 3.96624C11.3216 3.96624 12.3184 4.35447 13.1788 5.12044C14.0392 5.88641 14.5324 6.84124 14.6583 7.97445L14.7318 8.58303C14.7318 8.69845 14.7947 8.76141 14.9206 8.76141H16.6204C17.5438 8.76141 18.3412 9.09717 19.0128 9.7687C19.6843 10.4402 20.0201 11.2377 20.0201 12.161C20.0201 13.0529 19.7263 13.8294 19.1387 14.4904C18.5511 15.1515 17.8271 15.5187 16.9667 15.5922C16.4945 15.6551 16.1902 15.7495 16.0643 15.8859L13.6195 18.9393C13.4516 19.1177 13.3887 19.338 13.4202 19.6004C13.4412 19.8522 13.5566 20.0516 13.7454 20.2194C13.9343 20.3873 14.1337 20.4608 14.3435 20.4608C14.5849 20.4608 14.8052 20.3349 15.0151 20.062L17.1556 17.3444C17.8061 17.2815 18.4147 17.0926 19.0023 16.7988C19.5794 16.505 20.083 16.1168 20.4922 15.6656C20.9015 15.2039 21.2372 14.6688 21.4786 14.0602C21.7199 13.4516 21.8458 12.8221 21.8458 12.161C21.8458 11.2482 21.6045 10.3983 21.1323 9.60082C21.9822 8.82436 22.5383 7.9115 22.7901 6.85173V6.7573L23 5.94936L22.2026 5.67655C21.6045 5.49817 21.0903 5.20438 20.6601 4.80566C20.2299 4.40693 19.9361 3.96624 19.7578 3.51506C19.5794 3.06387 19.4849 2.60219 19.4849 2.14051C19.4849 1.8677 19.5164 1.59489 19.5689 1.3011L19.7682 0.482664L18.8974 0.241332C18.8869 0.241332 18.8764 0.241332 18.8659 0.23084C18.8554 0.220347 18.8449 0.209854 18.8239 0.209854C18.8029 0.209854 18.7924 0.199362 18.7819 0.188869C18.7295 0.178376 18.719 0.167883 18.719 0.167883C18.2573 0.0524633 17.8271 0 17.4074 0C17.0087 0.0104927 16.6099 0.0524634 16.2007 0.146898C15.7915 0.241332 15.3823 0.377737 14.9416 0.577099C14.5009 0.77646 14.0812 1.05976 13.6825 1.42701C13.2838 1.79425 12.927 2.22445 12.6332 2.7281C11.8463 2.38184 11.0278 2.21396 10.1779 2.21396C8.69845 2.21396 7.37637 2.67564 6.23266 3.5885C5.08896 4.50137 4.34398 5.67655 4.0187 7.11405C2.83303 7.39735 1.8677 8.01642 1.12272 8.95027C0.377737 9.88412 0 10.9544 0 12.1715ZM3.89279 20.5552C3.89279 20.6916 3.91378 20.7965 3.96624 20.8805C4.06068 21.1113 4.20757 21.2687 4.41743 21.3631C4.64827 21.4681 4.87911 21.4786 5.12044 21.3946C5.36177 21.3107 5.51916 21.1533 5.6031 20.9329C5.70803 20.7021 5.70803 20.4713 5.61359 20.2299C5.51916 19.9886 5.36177 19.8312 5.14142 19.7578C4.91058 19.6528 4.67974 19.6423 4.44891 19.7368C4.21807 19.8207 4.06067 19.9886 3.97673 20.2089C3.91378 20.2929 3.89279 20.4188 3.89279 20.5552ZM5.82345 17.9845V18.0999C5.84443 18.3412 5.95985 18.5301 6.16971 18.677C6.30611 18.8344 6.49498 18.9078 6.73631 18.9078C6.97765 18.8974 7.20849 18.7924 7.42883 18.5721L9.87363 15.5082C10.0205 15.3298 10.073 15.1095 10.052 14.8577C10.0205 14.6058 9.9261 14.4065 9.73723 14.2491C9.54836 14.1022 9.3385 14.0392 9.07619 14.0602C8.82436 14.0812 8.625 14.2071 8.4781 14.417L6.0438 17.4179C5.8969 17.5858 5.82345 17.7746 5.82345 17.9845ZM6.43202 23.4512C6.52646 23.6715 6.68385 23.8289 6.91469 23.9234C7.03011 23.9758 7.14553 24.0073 7.26095 24.0073C7.3239 24.0073 7.42883 23.9863 7.57573 23.9443C7.79608 23.8499 7.95347 23.703 8.03741 23.4827C8.12135 23.2518 8.12135 23.0315 8.0479 22.8006C7.97445 22.5803 7.81706 22.4124 7.58622 22.297C7.35538 22.213 7.13504 22.213 6.92518 22.297C6.71533 22.3809 6.55794 22.5383 6.45301 22.7587C6.33759 22.9685 6.3271 23.1889 6.43202 23.4512ZM8.10036 20.6601V20.7441C8.12135 20.9749 8.23677 21.1848 8.43613 21.3526C8.63549 21.5205 8.83485 21.6045 9.02372 21.6045C9.25456 21.6045 9.46442 21.4891 9.65329 21.2477L14.1756 15.6236C14.3225 15.4453 14.396 15.2249 14.375 14.9731C14.354 14.7213 14.2491 14.5114 14.0707 14.3645C13.8609 14.2176 13.63 14.1547 13.3782 14.1756C13.1264 14.1966 12.927 14.3015 12.7801 14.4904L8.29973 20.1145C8.16332 20.2719 8.10036 20.4608 8.10036 20.6601ZM11.7833 21.8248C11.7833 21.9402 11.8043 22.0557 11.8568 22.1711C11.9407 22.4124 12.1086 22.5698 12.3499 22.6642C12.5912 22.7587 12.8011 22.7587 12.99 22.6852C13.2208 22.5908 13.3782 22.4334 13.4726 22.2026C13.5776 21.9717 13.588 21.7514 13.5041 21.531C13.4202 21.3107 13.2628 21.1533 13.0319 21.0484C12.8011 20.9644 12.5703 20.9644 12.3499 21.0484C12.1191 21.1323 11.9617 21.2792 11.8568 21.489C11.8043 21.6045 11.7833 21.7199 11.7833 21.8248ZM14.1756 3.65146C14.5009 3.05338 14.9626 2.5917 15.5397 2.26642C16.1168 1.95164 16.7359 1.79425 17.3864 1.80474C17.5123 1.80474 17.6068 1.80474 17.6592 1.81524V2.13002C17.6592 3.14781 17.9425 4.11314 18.4986 5.01551C19.0547 5.92838 19.8207 6.6104 20.7965 7.07208C20.5342 7.56524 20.2614 7.95347 19.9676 8.24726C19.0338 7.41834 17.911 7.00912 16.589 7.00912H16.2532C15.9489 5.67655 15.2564 4.55383 14.1756 3.65146Z"
                fill="black"
              />
            </svg>