 <svg
              width="23"
              height="23"
              viewBox="0 0 23 23"
              fill="none"
              xmlns="http://www.w3.org/2000/svg"
            >
              <path
                d="M0 15.6501C0 16.9716 0.236448 18.204 0.709346 19.3325C1.18224 20.4609 1.81635 21.3518 2.63318 22.0052C3.45 22.6585 4.33131 23 5.2986 23H16.9168C17.8734 23 18.7654 22.6733 19.5822 22.0052C20.3991 21.337 21.0439 20.4461 21.5168 19.3325C21.9897 18.204 22.2369 16.9716 22.2369 15.6501C22.2369 14.6998 22.0864 13.7198 21.7855 12.6804C22.6023 11.2995 23 9.66624 23 7.7805C23 6.36992 22.7528 5.06327 22.2584 3.8754C21.764 2.68754 21.0762 1.73725 20.2164 1.03938C19.3565 0.341511 18.4107 0 17.3897 0C15.7883 0 14.4019 0.861201 13.2304 2.5836C12.4136 1.94513 11.4463 1.61846 10.3393 1.61846C8.82383 1.61846 7.49112 2.25694 6.33037 3.54874C5.16963 4.84054 4.42804 6.4887 4.09486 8.52292C2.89112 8.89413 1.91308 9.74048 1.15 11.0768C0.386916 12.4132 0 13.9425 0 15.6501ZM1.83785 15.6501C1.83785 14.4177 2.13878 13.3486 2.72991 12.4429C3.33178 11.5371 4.08411 11.0174 4.98691 10.8689L5.71776 10.8244L5.79299 9.75533C5.94346 8.15171 6.4486 6.80052 7.30841 5.73144C8.16822 4.64751 9.1785 4.11298 10.3285 4.11298C11.5 4.11298 12.5318 4.66236 13.4023 5.74629C14.2729 6.83021 14.7673 8.16656 14.8855 9.77018L14.993 10.8838H16.9061C17.8519 10.8838 18.6687 11.3589 19.3565 12.2944C20.0444 13.2298 20.3883 14.3583 20.3883 15.6501C20.3883 16.9864 20.0444 18.1298 19.3673 19.0949C18.6902 20.06 17.8626 20.5352 16.9168 20.5352H5.2986C4.36355 20.5352 3.55748 20.06 2.86963 19.0949C2.18178 18.1149 1.83785 16.9716 1.83785 15.6501ZM14.7673 4.02389C15.5089 3.0439 16.3794 2.55391 17.3897 2.55391C18.4537 2.55391 19.3565 3.05875 20.0981 4.08328C20.8397 5.09296 21.2159 6.34022 21.2159 7.8102C21.2159 8.73079 21.0332 9.63654 20.657 10.5423C19.6252 9.102 18.3785 8.38928 16.9061 8.38928H16.5729C16.2827 6.74112 15.6808 5.28599 14.7673 4.02389Z"
                fill="black"
              />
            </svg>