<svg
              width="23"
              height="18"
              viewBox="0 0 23 18"
              fill="none"
              xmlns="http://www.w3.org/2000/svg"
            >
              <path
                d="M0 12.2144C0 10.9867 0.370456 9.90704 1.12195 8.95444C1.87345 8.00184 2.83663 7.39853 4.02209 7.13392C4.26553 6.04372 4.763 5.09112 5.50391 4.27612C6.24482 3.46111 7.1445 2.87897 8.18178 2.52968C8.83801 2.30741 9.51542 2.19098 10.2246 2.19098C11.0819 2.19098 11.9181 2.36033 12.7119 2.69903C13.0083 2.20156 13.3576 1.7676 13.7598 1.40773C14.162 1.04786 14.5748 0.76208 14.9982 0.57156C15.4215 0.38104 15.8449 0.232857 16.2471 0.137597C16.6493 0.0423374 17.0515 0 17.4326 0C17.8348 0 18.2688 0.0529221 18.7345 0.169351L19.6024 0.433962C19.7506 0.497469 19.7929 0.57156 19.7506 0.66682L19.6024 1.30189C19.5283 1.63 19.4965 1.93695 19.4965 2.21215C19.4965 2.54027 19.5495 2.87897 19.6553 3.21767C19.7612 3.55637 19.9093 3.88449 20.121 4.21261C20.3221 4.54073 20.6079 4.82651 20.9678 5.09112C21.3277 5.35573 21.7299 5.55683 22.185 5.69443L22.8412 5.92729C22.9471 5.95904 23 6.01197 23 6.09664C23 6.11781 22.9894 6.13898 22.9788 6.17073L22.7883 6.87989C22.5025 8.02301 21.9627 8.92269 21.2006 9.60009C21.624 10.341 21.8569 11.1348 21.8886 11.971C21.8992 12.0239 21.8992 12.098 21.8992 12.2144C21.8992 13.1565 21.6664 14.035 21.1901 14.8394C20.7243 15.6438 20.0787 16.2789 19.2849 16.7446C18.4804 17.2103 17.6019 17.4538 16.6599 17.4538H5.21813C4.27612 17.4538 3.39761 17.2209 2.59319 16.7446C1.78877 16.2683 1.16429 15.6332 0.698574 14.8394C0.232858 14.0456 0 13.167 0 12.2144ZM1.80994 12.2144C1.80994 13.1565 2.14864 13.9715 2.82605 14.6595C3.50345 15.3474 4.29728 15.6967 5.21813 15.6967H16.6599C17.6019 15.6967 18.4064 15.358 19.0732 14.67C19.74 13.9821 20.0787 13.167 20.0787 12.2144C20.0787 11.283 19.74 10.4892 19.0626 9.82237C18.3852 9.15555 17.5808 8.81684 16.6493 8.81684H14.7653L14.6595 8.02301C14.5536 6.95398 14.1091 6.03313 13.3258 5.28164C12.5426 4.53014 11.6111 4.10676 10.5421 4.0115C10.5104 4.0115 10.4574 4.01151 10.3833 4.00092C10.3092 3.99034 10.2669 3.99034 10.2246 3.99034C9.68477 3.99034 9.14496 4.09618 8.59457 4.29729V4.27612C7.82191 4.57248 7.16567 5.05937 6.64703 5.72619C6.11781 6.39301 5.80028 7.15509 5.69443 8.02301L5.62034 8.78509L4.9006 8.81684C4.01151 8.92269 3.27059 9.29314 2.67786 9.93879C2.08514 10.5844 1.80994 11.3359 1.80994 12.2144ZM14.2467 3.63046C15.3686 4.59365 16.0672 5.7156 16.3318 6.99632H16.6705C17.983 6.99632 19.1049 7.40911 20.0258 8.24528C20.3751 7.91717 20.6397 7.53613 20.8302 7.11275C19.867 6.65762 19.1049 5.95904 18.5439 5.02761C17.9936 4.09618 17.7078 3.11183 17.7078 2.08514V1.83111C17.6549 1.82052 17.5702 1.82052 17.4537 1.82052C16.8399 1.80994 16.2365 1.95812 15.6544 2.28624C15.0723 2.60377 14.596 3.04832 14.2467 3.63046Z"
                fill="black"
              />
            </svg>