  <svg
              width="23"
              height="24"
              viewBox="0 0 23 24"
              fill="none"
              xmlns="http://www.w3.org/2000/svg"
            >
              <path
                d="M0 12.1656C0 13.3357 0.347846 14.3792 1.04354 15.2963C1.73923 16.2133 2.64574 16.8458 3.76306 17.1831L3.07791 18.975C3.03575 19.1226 3.07791 19.1964 3.22548 19.1964H5.46013L4.10037 23.6024H4.39551L8.85426 17.6785C8.89642 17.6363 8.89643 17.5836 8.87534 17.5309C8.84372 17.4782 8.80156 17.4571 8.72777 17.4571H6.42988L9.03346 12.5662C9.10724 12.4186 9.06508 12.3343 8.89642 12.3343H5.77635C5.68148 12.3343 5.6077 12.387 5.54445 12.4924L4.41659 15.5282C3.66819 15.3384 3.04629 14.9273 2.54033 14.2949C2.03437 13.6624 1.79193 12.9562 1.79193 12.1762C1.79193 11.3013 2.08708 10.5424 2.6879 9.88884C3.28873 9.24585 4.02658 8.86638 4.90147 8.76098L5.46013 8.68719C5.59716 8.68719 5.67094 8.62395 5.67094 8.49746L5.74473 7.95988C5.86068 6.82147 6.33501 5.86226 7.18882 5.09278C8.04262 4.3233 9.044 3.9333 10.1929 3.9333C11.3419 3.9333 12.3433 4.3233 13.2076 5.09278C14.072 5.86226 14.5568 6.82147 14.6833 7.94934L14.7571 8.55016C14.7571 8.67665 14.8203 8.75043 14.9363 8.75043H16.6439C17.6031 8.75043 18.4148 9.08774 19.0999 9.75181C19.7851 10.4159 20.1224 11.2275 20.1224 12.1551C20.1224 13.0511 19.8061 13.8311 19.1737 14.4846C18.5412 15.1382 17.7718 15.5071 16.8547 15.5703C16.7282 15.5703 16.6544 15.6336 16.6544 15.7706V17.2041C16.6544 17.3306 16.7177 17.3939 16.8547 17.3939C18.2566 17.3517 19.4478 16.8141 20.428 15.8022C21.4083 14.7798 21.8932 13.5676 21.8932 12.1656C21.8932 11.2486 21.6613 10.3948 21.1975 9.58316C21.9986 8.80314 22.5362 7.88609 22.7892 6.82147L22.9895 6.1047C23 6.09416 23 6.07308 23 6.03091C23 5.94659 22.9473 5.89388 22.8419 5.86226L22.1884 5.68307C21.5875 5.50387 21.071 5.20873 20.6494 4.79764C20.2278 4.38655 19.9326 3.95438 19.7534 3.51166C19.5742 3.06895 19.4899 2.62624 19.5005 2.18352C19.5005 1.88838 19.5321 1.59324 19.6059 1.28756L19.7218 0.644569C19.7429 0.539161 19.7007 0.454835 19.5742 0.402131L18.731 0.149152C18.2356 0.0542849 17.8034 0.00158112 17.4239 0.00158112C17.0339 -0.00895967 16.6334 0.0332034 16.2328 0.12807C15.8323 0.212397 15.4106 0.359968 14.9785 0.549702C14.5463 0.739436 14.1352 1.02404 13.7346 1.38242C13.3341 1.74081 12.9862 2.16244 12.6911 2.64732C11.8162 2.32055 10.9835 2.16244 10.2035 2.16244C8.71723 2.16244 7.38909 2.62624 6.24015 3.55383C5.0912 4.48142 4.3428 5.66198 4.01604 7.09553C2.84601 7.36959 1.8868 7.98096 1.12786 8.92963C0.379468 9.86776 0 10.9535 0 12.1656ZM10.1086 18.5639C10.1086 18.8169 10.1929 19.0277 10.3616 19.1858C10.5302 19.3545 10.7411 19.4388 10.973 19.4388C11.2259 19.4388 11.4368 19.3545 11.6159 19.1858C11.7951 19.0172 11.8795 18.8063 11.8795 18.5639C11.8795 18.3109 11.7951 18.1001 11.6159 17.9209C11.4368 17.7417 11.2259 17.6469 10.973 17.6469C10.7411 17.6469 10.5408 17.7417 10.3616 17.9209C10.1824 18.1001 10.1086 18.3109 10.1086 18.5639ZM10.1086 14.7271C10.1086 14.98 10.1929 15.1803 10.3616 15.3384C10.5302 15.5071 10.7411 15.5914 10.973 15.5914C11.2259 15.5914 11.4473 15.5071 11.6159 15.349C11.7846 15.1909 11.8795 14.98 11.8795 14.7271C11.8795 14.4846 11.7951 14.2738 11.6159 14.0946C11.4368 13.9154 11.2259 13.8311 10.973 13.8311C10.7305 13.8311 10.5302 13.9154 10.3616 14.0946C10.1929 14.2738 10.1086 14.4846 10.1086 14.7271ZM10.1086 22.4324C10.1086 22.6643 10.1929 22.8646 10.3616 23.0332C10.5408 23.2124 10.7411 23.2967 10.973 23.2967C11.2259 23.2967 11.4368 23.2124 11.6159 23.0437C11.7951 22.8751 11.8795 22.6748 11.8795 22.4218C11.8795 22.1689 11.7951 21.958 11.6159 21.7789C11.4368 21.5997 11.2259 21.5048 10.973 21.5048C10.7411 21.5048 10.5408 21.5997 10.3616 21.7789C10.1929 21.9686 10.1086 22.1899 10.1086 22.4324ZM13.5133 16.519C13.5133 16.772 13.5976 16.9828 13.7768 17.1514C13.956 17.3201 14.1563 17.415 14.4093 17.415C14.6517 17.415 14.8625 17.3306 15.0312 17.1514C15.1998 16.9723 15.2841 16.7614 15.2841 16.519C15.2841 16.2871 15.1998 16.0763 15.0312 15.9076C14.8625 15.739 14.6622 15.6547 14.4093 15.6547C14.1668 15.6547 13.956 15.739 13.7768 15.9076C13.5976 16.0763 13.5133 16.2766 13.5133 16.519ZM13.5133 20.3558C13.5133 20.5983 13.5976 20.7986 13.7663 20.9672C13.9349 21.1359 14.1457 21.2202 14.3987 21.2202C14.6517 21.2202 14.852 21.1359 15.0206 20.9672C15.1893 20.7986 15.2631 20.5983 15.2631 20.3453C15.2631 20.0923 15.1787 19.892 15.0206 19.7234C14.852 19.5547 14.6517 19.481 14.3987 19.481C14.1457 19.481 13.9349 19.5653 13.7663 19.7234C13.5976 19.892 13.5133 20.1029 13.5133 20.3558ZM14.2301 3.60653C14.5779 3.01625 15.0522 2.56299 15.6425 2.24677C16.2328 1.93055 16.8547 1.77243 17.4977 1.77243H17.7296V2.10974C17.7296 2.78435 17.8456 3.43788 18.088 4.07033C18.3304 4.70277 18.6783 5.28252 19.1632 5.8201C19.6375 6.35768 20.2067 6.77931 20.8602 7.09553C20.681 7.49608 20.4175 7.85447 20.0591 8.18123C19.0999 7.35905 17.972 6.94796 16.665 6.94796H16.3171C16.0115 5.61982 15.3158 4.5025 14.2301 3.60653Z"
                fill="black"
              />
            </svg>