   <svg
              width="23"
              height="24"
              viewBox="0 0 23 24"
              fill="none"
              xmlns="http://www.w3.org/2000/svg"
            >
              <path
                d="M0 11.0543C0 9.55964 0.29582 8.14282 0.87189 6.77271C1.44796 5.4026 2.242 4.23489 3.22288 3.25402C4.20375 2.27314 5.38703 1.4791 6.75714 0.887458C8.12725 0.295819 9.55964 0 11.0387 0H12.8137C13.0628 0.0622778 13.1718 0.217972 13.1718 0.435944L13.2496 1.80606C13.3119 3.78338 14.0125 5.46488 15.3826 6.85056C16.7527 8.23624 18.4031 8.98357 20.3493 9.06142L21.626 9.17041C21.8751 9.17041 21.9996 9.29496 21.9996 9.5285V11.0543C22.0152 13.0472 21.5326 14.9 20.5517 16.597C19.5708 18.2941 18.2474 19.6331 16.5503 20.6295C14.8688 21.6104 13.0161 22.1086 11.0232 22.1086C9.51293 22.1086 8.06498 21.8128 6.69486 21.2367C5.32475 20.6607 4.15704 19.8666 3.17617 18.8857C2.19529 17.9049 1.41682 16.7216 0.84075 15.367C0.295819 13.9969 0 12.5645 0 11.0543ZM2.84921 11.0543C2.84921 12.2376 3.08275 13.3586 3.54983 14.4173C4.01692 15.4605 4.6397 16.3479 5.4026 17.0641C6.1655 17.7803 7.03739 18.3408 8.03384 18.7456C9.01471 19.166 10.0267 19.3684 11.0543 19.3684C11.9573 19.3684 12.8759 19.1971 13.7945 18.839C14.7131 18.4809 15.5695 17.9827 16.3635 17.3444C17.1575 16.706 17.827 15.8964 18.4031 14.9C18.9792 13.9035 19.3373 12.8292 19.5085 11.6459C16.9707 11.1166 14.9311 10.0267 13.4053 8.37637C11.8795 6.726 10.992 4.79539 10.7585 2.55339C9.26382 2.64681 7.92485 3.09832 6.69486 3.9235C5.48045 4.74868 4.53071 5.79184 3.86122 7.06853C3.19174 8.34523 2.84921 9.66863 2.84921 11.0543Z"
                fill="#0C0C0C"
              />
            </svg>