<svg width="45" height="35" viewBox="0 0 45 35" fill="none" xmlns="http://www.w3.org/2000/svg">
<path d="M0 22.5C0 22.0408 0.183673 21.6184 0.55102 21.2327C0.955102 20.8837 1.39592 20.7 1.83673 20.7H6.11633C6.61224 20.7 7.01633 20.8837 7.34694 21.2327C7.67755 21.5816 7.84286 22.0225 7.84286 22.5C7.84286 23.0327 7.67755 23.4735 7.34694 23.8225C7.01633 24.1714 6.59388 24.3551 6.11633 24.3551H1.83673C1.34082 24.3551 0.918367 24.1714 0.55102 23.8041C0.183673 23.4184 0 22.9776 0 22.5ZM6.11633 7.84286C6.11633 7.34694 6.28163 6.92449 6.59388 6.59388C7.01633 6.22653 7.43878 6.04286 7.89796 6.04286C8.37551 6.04286 8.79796 6.22653 9.14694 6.57551L12.1592 9.60613C12.5082 10.0102 12.6735 10.4327 12.6735 10.8735C12.6735 11.3878 12.5082 11.8286 12.1776 12.1592C11.8469 12.4898 11.4429 12.6735 10.9653 12.6735C10.5245 12.6735 10.0837 12.4898 9.67959 12.1408L6.59388 9.18368C6.28163 8.79796 6.11633 8.33878 6.11633 7.84286ZM9.7898 32.6388C9.7898 32.1245 9.97347 31.7021 10.3224 31.3898C10.6531 31.0776 11.0571 30.9123 11.5714 30.9123H16.402L22.1143 25.549C22.298 25.4021 22.5 25.4021 22.7388 25.549L28.5429 30.9123H33.6306C34.1265 30.9123 34.549 31.0776 34.898 31.4265C35.2469 31.7572 35.4306 32.1796 35.4306 32.6572C35.4306 33.1531 35.2469 33.5755 34.898 33.9245C34.549 34.2735 34.1265 34.4572 33.6306 34.4572H27.4224C27.2388 34.4572 27.0551 34.4204 26.8898 34.3286L22.4633 30.1592L18.0735 34.3286C17.9265 34.4204 17.7612 34.4572 17.5592 34.4572H11.5714C11.0755 34.4572 10.6531 34.2735 10.3041 33.9245C9.9551 33.5572 9.7898 33.1347 9.7898 32.6388ZM11.4796 22.5C11.4796 24.2816 11.8653 25.898 12.6184 27.349C12.6551 27.5694 12.8204 27.6796 13.0776 27.6796H16.5306C16.6592 27.6796 16.751 27.6245 16.8061 27.5327C16.8612 27.4225 16.8429 27.3123 16.7694 27.1837C15.5939 25.7694 15.0061 24.2082 15.0061 22.5C15.0061 20.4429 15.7408 18.6796 17.2102 17.2286C18.6796 15.7776 20.4429 15.0612 22.5184 15.0612C24.5755 15.0612 26.3204 15.7776 27.7714 17.2286C29.2224 18.6796 29.9571 20.4245 29.9571 22.5C29.9571 24.2265 29.3694 25.7878 28.2122 27.1837C28.1388 27.3123 28.1204 27.4225 28.1571 27.5327C28.1939 27.6429 28.2857 27.6796 28.4327 27.6796H31.9224C32.1612 27.6796 32.3082 27.5694 32.3449 27.349C33.1531 25.9347 33.5204 24.3184 33.5204 22.5C33.5204 21.0123 33.2265 19.5796 32.6388 18.2388C32.051 16.8796 31.2612 15.7225 30.2878 14.7306C29.3143 13.7572 28.1388 12.9674 26.7796 12.3796C25.4204 11.7918 24.0061 11.5163 22.5184 11.5163C21.0306 11.5163 19.598 11.8102 18.2388 12.3796C16.8796 12.9674 15.7041 13.7388 14.7122 14.7306C13.7204 15.7041 12.9306 16.8796 12.3429 18.2388C11.7735 19.5796 11.4796 20.9939 11.4796 22.5ZM20.7184 6.04286V1.81837C20.7184 1.28571 20.8837 0.863266 21.2327 0.514286C21.5816 0.165307 22.0224 0 22.5367 0C23.051 0 23.4735 0.165307 23.8224 0.514286C24.1714 0.863266 24.3367 1.32245 24.3367 1.83674V6.06123C24.3367 6.59388 24.1714 7.01633 23.8224 7.36531C23.4918 7.69592 23.051 7.8796 22.5367 7.8796C22.0041 7.8796 21.5816 7.71429 21.2327 7.36531C20.8837 7.01633 20.7184 6.57551 20.7184 6.04286ZM32.3816 10.8918C32.3816 10.4327 32.5469 10.0102 32.8775 9.6245L35.8531 6.59388C36.202 6.2449 36.6429 6.06123 37.1388 6.06123C37.6347 6.06123 38.0755 6.2449 38.4061 6.59388C38.7551 6.94286 38.9204 7.36531 38.9204 7.86123C38.9204 8.39388 38.7551 8.8347 38.4429 9.20205L35.3571 12.1592C34.9714 12.5082 34.5306 12.6918 34.0714 12.6918C33.5755 12.6918 33.1714 12.5265 32.8592 12.1776C32.5469 11.8286 32.3816 11.4061 32.3816 10.8918ZM37.1755 22.5C37.1755 22.0041 37.3408 21.5816 37.6714 21.2327C38.002 20.8837 38.4061 20.7 38.8837 20.7H43.2C43.6959 20.7 44.1184 20.8837 44.4673 21.2327C44.8163 21.5816 45 22.0225 45 22.5C45 23.0143 44.8163 23.4367 44.4673 23.8041C44.1184 24.1714 43.6959 24.3551 43.2 24.3551H38.8837C38.3878 24.3551 37.9837 24.1714 37.6531 23.8225C37.3408 23.4551 37.1755 23.0143 37.1755 22.5Z" fill="black"/>
</svg>
