<svg width="45" height="40" viewBox="0 0 45 40" fill="none" xmlns="http://www.w3.org/2000/svg">
<path d="M0 22.4907C0 21.9711 0.185567 21.5629 0.556701 21.2289C0.872165 20.8948 1.29897 20.7464 1.81856 20.7464H6.10515C6.60619 20.7464 7.01443 20.9134 7.34845 21.2474C7.66392 21.5814 7.83093 21.9897 7.83093 22.4907C7.83093 23.0103 7.66392 23.4557 7.3299 23.8082C6.99588 24.1608 6.58763 24.3464 6.10515 24.3464H1.83711C1.33608 24.3464 0.909278 24.1608 0.556701 23.7897C0.185567 23.4186 0 22.9917 0 22.4907ZM6.10515 7.90515C6.10515 7.38557 6.25361 6.95876 6.56907 6.6433C6.94021 6.27216 7.36701 6.0866 7.86804 6.0866C8.40619 6.0866 8.81443 6.27216 9.1299 6.6433L12.1361 9.66804C12.9897 10.4845 12.9897 11.3196 12.1361 12.1732C11.7835 12.5258 11.3938 12.6928 10.9299 12.6928C10.5217 12.6928 10.1134 12.5258 9.66804 12.1732L6.58763 9.16701C6.27216 8.83299 6.10515 8.40618 6.10515 7.90515ZM9.76083 32.5484C9.76083 32.066 9.94639 31.6392 10.3175 31.268C10.6515 30.934 11.0784 30.767 11.5794 30.767H17.5546C17.7588 30.767 17.9258 30.8041 18.0742 30.9155L22.4351 35.035L26.8701 30.8969C27 30.8041 27.1856 30.7484 27.4082 30.7484H33.532C34.033 30.7484 34.4598 30.9155 34.8124 31.268C35.1649 31.6206 35.3505 32.0474 35.3505 32.5299C35.3505 33.0309 35.1649 33.4577 34.8124 33.8103C34.4598 34.1629 34.033 34.3484 33.532 34.3484H28.5588L22.732 39.6185C22.5093 39.7856 22.3052 39.7856 22.1196 39.6185L16.4041 34.3484H11.5794C11.0784 34.3484 10.6515 34.1629 10.299 33.8103C9.94639 33.4763 9.76083 33.0495 9.76083 32.5484ZM11.5052 22.4907C11.5052 24.3278 11.8577 25.9608 12.5814 27.3526C12.6928 27.5567 12.8598 27.6495 13.0825 27.6495H16.5526C16.701 27.6495 16.7938 27.6124 16.8309 27.5196C16.868 27.4268 16.8124 27.3155 16.701 27.1856C15.6062 25.8124 15.0495 24.235 15.0495 22.4907C15.0495 20.4495 15.7732 18.7051 17.2392 17.2763C18.7052 15.8474 20.468 15.1237 22.5278 15.1237C24.5691 15.1237 26.3134 15.8474 27.7794 17.2763C29.2268 18.7237 29.9691 20.4495 29.9691 22.4722C29.9691 24.2165 29.4124 25.7938 28.3175 27.167C28.1876 27.2969 28.1505 27.4082 28.1876 27.501C28.2247 27.5938 28.3175 27.6309 28.466 27.6309H31.9546C32.1959 27.6309 32.3443 27.5381 32.4 27.334C33.1608 25.8866 33.5505 24.2536 33.5505 22.4722C33.5505 21.0062 33.2536 19.5773 32.6784 18.2227C32.1031 16.868 31.3052 15.6804 30.3216 14.6969C29.3381 13.7134 28.1691 12.934 26.8144 12.3402C25.4598 11.7464 24.0309 11.468 22.5464 11.468C21.0619 11.468 19.633 11.7649 18.2783 12.3402C16.9237 12.934 15.7546 13.7134 14.7711 14.6969C13.7876 15.6804 13.0082 16.8495 12.4144 18.2227C11.8206 19.5959 11.5052 21.0247 11.5052 22.4907ZM20.7093 6.14227V1.81856C20.7093 1.31753 20.8948 0.890722 21.2474 0.538145C21.6 0.185567 22.0268 0 22.5278 0C23.0289 0 23.4557 0.185567 23.8082 0.538145C24.1608 0.890722 24.3464 1.31753 24.3464 1.81856V6.12371C24.3464 6.62474 24.1608 7.05155 23.8082 7.40412C23.4557 7.7567 23.0289 7.94227 22.5278 7.94227C22.0268 7.94227 21.6 7.7567 21.2474 7.40412C20.8763 7.05155 20.7093 6.6433 20.7093 6.14227ZM32.3443 10.9299C32.3443 10.4103 32.5113 9.9835 32.8268 9.6866L35.8515 6.66185C36.1485 6.29072 36.5753 6.10515 37.1134 6.10515C37.6144 6.10515 38.0412 6.29072 38.3753 6.6433C38.7093 6.99587 38.8763 7.42268 38.8763 7.92371C38.8763 8.4433 38.7278 8.8701 38.4124 9.18557L35.332 12.2103C34.9052 12.5629 34.4783 12.7299 34.0515 12.7299C33.5691 12.7299 33.1608 12.5629 32.8268 12.2103C32.5113 11.8577 32.3443 11.4309 32.3443 10.9299ZM37.1505 22.4907C37.1505 21.9897 37.3175 21.5814 37.633 21.2474C37.9485 20.9134 38.3753 20.7464 38.8763 20.7464H43.1814C43.6825 20.7464 44.1093 20.9134 44.4619 21.2474C44.8144 21.5814 45 21.9897 45 22.4907C45 22.9917 44.8144 23.4186 44.4619 23.7897C44.1093 24.1608 43.6825 24.3464 43.1814 24.3464H38.8763C38.3938 24.3464 37.9856 24.1608 37.6515 23.8082C37.3175 23.4557 37.1505 23.0103 37.1505 22.4907Z" fill="black"/>
</svg>
