<svg width="32" height="32" viewBox="0 0 32 32" fill="none" xmlns="http://www.w3.org/2000/svg">
<path d="M0 20.1685C0 19.7128 0.150659 19.3329 0.47081 19.0101C0.809793 18.6872 1.18644 18.5353 1.60075 18.5353H5.44256C5.87571 18.5353 6.23352 18.6872 6.53484 19.0101C6.81733 19.3329 6.96798 19.7128 6.96798 20.1685C6.96798 20.6243 6.81733 21.0042 6.53484 21.308C6.25235 21.6309 5.87571 21.7828 5.44256 21.7828H1.61959C1.18644 21.7828 0.809793 21.6309 0.489643 21.308C0.169492 20.9852 0 20.6053 0 20.1685ZM5.38606 7.0457C5.38606 6.6089 5.53672 6.22908 5.81921 5.88724C6.19586 5.56439 6.59134 5.41246 7.02448 5.41246C7.41996 5.41246 7.79661 5.56439 8.13559 5.88724L10.8286 8.65994C11.1299 8.94481 11.2806 9.32463 11.2806 9.78041C11.2806 10.2362 11.1299 10.616 10.8286 10.9199C10.5273 11.2237 10.1507 11.3757 9.69868 11.3757C9.2467 11.3757 8.87006 11.2237 8.58757 10.9199L5.83804 8.20415C5.53672 7.8813 5.38606 7.50148 5.38606 7.0457ZM5.68738 24.7264C5.68738 24.3086 5.83804 23.9478 6.12053 23.6819C6.42185 23.416 6.81733 23.2641 7.3258 23.2641H18.0791C18.5876 23.2641 18.983 23.397 19.2844 23.6819C19.5857 23.9478 19.7363 24.3086 19.7363 24.7264C19.7363 25.2392 19.5857 25.638 19.3032 25.9418C19.0019 26.2457 18.6064 26.3976 18.0791 26.3976H7.3258C6.81733 26.3976 6.42185 26.2457 6.12053 25.9608C5.81921 25.676 5.68738 25.2392 5.68738 24.7264ZM7.55179 30.3288C7.55179 29.911 7.72128 29.5312 8.0791 29.1893C8.41808 28.8475 8.81356 28.6766 9.20904 28.6766C9.69868 28.6766 10.0942 28.8475 10.3955 29.1703C10.6968 29.5122 10.8475 29.892 10.8475 30.3288C10.8475 30.8605 10.6968 31.2593 10.4143 31.5632C10.1318 31.8671 9.71751 32 9.20904 32C8.77589 32 8.38041 31.8481 8.06026 31.5442C7.72128 31.2404 7.55179 30.8225 7.55179 30.3288ZM10.2072 20.7193V20.5863C10.2637 18.1935 11.0923 16.1234 12.6742 14.3573C14.2561 12.5911 16.1959 11.5276 18.5122 11.1478H18.6064C18.9642 11.0718 19.4539 11.0338 20.0377 11.0338C20.6215 11.0338 21.1111 11.0718 21.4689 11.1478H21.5443C23.8418 11.5086 25.8004 12.5911 27.3823 14.3573C28.9642 16.1234 29.7928 18.1935 29.8493 20.5863V20.7193C29.8493 21.0231 29.6987 21.1751 29.4162 21.1751H27.2881C27.0621 21.1751 26.9115 21.1181 26.8173 21.0042C26.7232 20.8902 26.6855 20.7763 26.6855 20.6623C26.6102 18.8961 25.9322 17.3958 24.6516 16.1614C23.371 14.927 21.8456 14.3193 20.0565 14.3193C18.2674 14.3193 16.742 14.927 15.4614 16.1614C14.1808 17.3958 13.5028 18.8961 13.4275 20.6623C13.4275 20.7763 13.371 20.8902 13.2768 21.0042C13.1827 21.1181 13.0132 21.1751 12.7872 21.1751H10.6591C10.3578 21.1751 10.2072 21.0231 10.2072 20.7193ZM12.1092 30.3288C12.1092 29.892 12.2599 29.5122 12.5612 29.1703C12.8625 28.8475 13.258 28.6766 13.7476 28.6766H20.9605C21.3748 28.6766 21.7514 28.8475 22.0904 29.1893C22.4294 29.5312 22.6177 29.911 22.6177 30.3288C22.6177 30.8225 22.4482 31.2404 22.1092 31.5442C21.7702 31.8481 21.3936 32 20.9605 32H13.7476C13.2392 32 12.8437 31.8481 12.5424 31.5632C12.2411 31.2593 12.1092 30.8605 12.1092 30.3288ZM18.3992 5.48843V1.63323C18.3992 1.17745 18.5499 0.797626 18.8701 0.474777C19.1902 0.151929 19.5669 0 20.0188 0C20.4708 0 20.8286 0.151929 21.1488 0.474777C21.4689 0.797626 21.6196 1.17745 21.6196 1.63323V5.48843C21.6196 5.92522 21.4689 6.30504 21.1488 6.58991C20.8286 6.87478 20.452 7.0457 20.0188 7.0457C19.5857 7.0457 19.1902 6.89377 18.8889 6.6089C18.5876 6.32403 18.3992 5.92522 18.3992 5.48843ZM20.9605 24.7264C20.9605 24.3276 21.1299 23.9858 21.4689 23.7009C21.8079 23.416 22.1846 23.2641 22.6177 23.2641C23.0508 23.2641 23.4275 23.416 23.7665 23.7009C24.1055 23.9858 24.275 24.3276 24.275 24.7264C24.275 25.2202 24.1055 25.638 23.7665 25.9418C23.4275 26.2457 23.0508 26.3976 22.6177 26.3976C22.1846 26.3976 21.7891 26.2457 21.4689 25.9418C21.1299 25.619 20.9605 25.2202 20.9605 24.7264ZM23.8606 30.3288C23.8606 29.892 24.0113 29.5122 24.3126 29.1703C24.6139 28.8475 25.0282 28.6766 25.5179 28.6766H29.0207C29.5104 28.6766 29.9058 28.8475 30.2072 29.1703C30.5085 29.5122 30.6591 29.892 30.6591 30.3288C30.6591 30.8605 30.5085 31.2593 30.226 31.5632C29.9435 31.8671 29.5292 32 29.0207 32H25.5179C25.0094 32 24.6139 31.8481 24.3126 31.5632C24.0113 31.2593 23.8606 30.8605 23.8606 30.3288ZM25.5179 24.7264C25.5179 24.3276 25.6874 23.9858 26.0264 23.7009C26.3653 23.416 26.742 23.2641 27.1563 23.2641H32.9379C33.3522 23.2641 33.6911 23.397 33.9548 23.6819C34.2185 23.9668 34.3691 24.3086 34.3691 24.7264C34.3691 25.2392 34.2373 25.638 33.9736 25.9418C33.71 26.2457 33.371 26.3976 32.9379 26.3976H27.1563C26.7232 26.3976 26.3465 26.2457 26.0075 25.9418C25.6874 25.619 25.5179 25.2202 25.5179 24.7264ZM28.7947 9.78041C28.7947 9.30564 28.9454 8.92582 29.2279 8.65994L31.9021 5.88724C32.241 5.56439 32.6177 5.41246 33.0132 5.41246C33.4463 5.41246 33.823 5.56439 34.1431 5.88724C34.4633 6.21009 34.6139 6.58991 34.6139 7.0457C34.6139 7.50148 34.4633 7.9003 34.162 8.20415L31.4124 10.9009C31.0734 11.2047 30.6968 11.3567 30.2825 11.3567C29.8493 11.3567 29.5104 11.2047 29.2279 10.9009C28.9454 10.616 28.7947 10.2362 28.7947 9.78041ZM33.0508 20.1685C33.0508 19.7317 33.2015 19.3519 33.5028 19.0101C33.823 18.6872 34.1808 18.5353 34.5763 18.5353H38.3804C38.8136 18.5353 39.1902 18.7062 39.5104 19.0291C39.8305 19.3519 40 19.7317 40 20.1685C40 20.6053 39.8305 20.9852 39.5104 21.308C39.1902 21.6309 38.8136 21.7828 38.3804 21.7828H34.5763C34.1431 21.7828 33.7665 21.6309 33.484 21.308C33.2015 20.9852 33.0508 20.6243 33.0508 20.1685Z" fill="#71E3E3"/>
</svg>
